<svg width="61" height="61" viewBox="0 0 61 61" fill="none" xmlns="http://www.w3.org/2000/svg">
<path d="M4.58594 23.4722C4.85434 23.0818 5.09834 22.667 5.56194 22.4718C12.9795 19.373 20.2995 15.957 27.7171 12.8582C28.8639 12.3702 30.2059 11.4918 31.4015 12.1262L55.3623 22.545C56.4359 23.155 56.5091 24.741 55.4355 25.3754C54.3619 26.0098 54.5571 24.6922 53.4103 24.497L30.5475 21.5446C28.4979 21.5446 28.1075 24.253 30.1815 24.741L50.9215 27.4006C51.2143 27.4738 51.4095 27.7422 51.3851 28.035V45.9934C51.1899 47.1646 49.8723 47.7502 48.8719 47.1158C48.6523 46.9694 48.1643 46.3594 48.1643 46.1154V28.6206L30.7427 36.0626C29.9131 36.1846 28.5223 35.4282 27.7171 35.0866C20.2995 31.9878 12.9795 28.5718 5.56194 25.473C5.07394 25.2534 4.80554 24.8386 4.58594 24.375V23.4722Z" fill="white"/>
<path d="M14.7386 32.9883L28.5977 38.9419C29.8177 39.3567 30.6718 39.4055 31.9162 39.0395C36.4302 37.4779 40.9685 34.6963 45.4337 33.2079C45.7997 33.0859 46.2145 32.8907 46.4829 33.2567C46.4585 35.3551 46.7025 37.6731 46.5317 39.7715C46.4097 41.3575 45.6046 42.8947 44.5554 44.0659C38.6018 50.6539 22.1806 50.6539 16.2026 44.0659C13.3234 40.8695 14.4458 37.4535 14.2262 33.5251C14.2262 33.2567 14.4214 33.0615 14.6898 33.0127L14.7386 32.9883Z" fill="white"/>
</svg>
