<svg width="61" height="61" viewBox="0 0 61 61" fill="none" xmlns="http://www.w3.org/2000/svg">
<path d="M17.0045 43.5258V51.6419C20.9409 51.6419 27.515 52.6159 30.5585 57.1204V47.6244C26.6222 44.7838 21.8336 43.6069 17.0045 43.5258Z" fill="white"/>
<path d="M30.5587 47.6244V57.1204C34.2516 52.8594 39.0401 51.6419 44.2751 51.6419V43.5258C39.4054 43.6069 34.4545 44.7838 30.5587 47.6244Z" fill="white"/>
<path d="M30.6404 4L20.8198 13.8206C16.1936 18.4468 15.7472 25.7514 19.6024 30.8646C19.2778 28.1457 20.1705 25.3862 22.0778 23.3571L22.4025 23.0325L35.9971 9.39726L30.6404 4Z" fill="white"/>
<path d="M40.5013 13.9018L37.4172 10.8176L23.8226 24.4528C20.8196 27.4558 20.8196 32.2849 23.8226 35.2473L26.4603 37.8851C26.0545 35.0039 26.9879 32.0415 29.0981 29.9718L29.2198 29.8501L42.5304 16.5395C41.9622 15.6062 41.3129 14.7134 40.5013 13.9018Z" fill="white"/>
<path d="M30.6399 31.2705C27.6369 34.2735 27.6369 39.1026 30.6399 42.065L40.4605 32.2444C44.194 28.511 45.1679 23.0731 43.4635 18.4469L30.6399 31.2705Z" fill="white"/>
</svg>
