<svg width="155" height="24" viewBox="0 0 155 24" fill="none" xmlns="http://www.w3.org/2000/svg">
<path d="M1.19116 8.19136V0.714533H1.99224V8.19136H1.19116ZM5.96431 8.19136L1.9255 4.38619L5.76405 0.681152H6.76541L2.72657 4.55308L2.79333 4.15254L7.0658 8.15798L5.96431 8.19136Z" fill="black"/>
<path d="M8.00008 10.4277C7.86656 10.4277 7.76642 10.4277 7.66629 10.3943C7.56615 10.3609 7.46603 10.3609 7.36589 10.3275V9.65997C7.46603 9.69335 7.56616 9.72673 7.63292 9.72673C7.73305 9.72673 7.79981 9.76011 7.89994 9.76011C8.10022 9.76011 8.26712 9.72673 8.43401 9.6266C8.60091 9.52646 8.73442 9.39295 8.86793 9.22605C9.00145 9.02578 9.13496 8.72537 9.30185 8.39159L9.46875 7.99104L9.43538 8.39159L6.73169 2.91748H7.56616L9.73577 7.35684H9.76916L11.7051 2.91748H12.5062L10.1029 8.42496C9.90268 8.92564 9.70239 9.32619 9.50212 9.59322C9.30184 9.89363 9.10158 10.0939 8.86793 10.2274C8.6009 10.3609 8.33386 10.4277 8.00008 10.4277Z" fill="black"/>
<path d="M15.9111 8.32487C15.3102 8.32487 14.7762 8.19136 14.3756 7.95771C13.9751 7.72406 13.6413 7.35689 13.441 6.88959C13.2408 6.42229 13.1406 5.82147 13.1406 5.12052C13.1406 4.35281 13.2408 3.68523 13.4077 3.18455C13.5745 2.68387 13.875 2.28333 14.2755 2.0163C14.6761 1.74927 15.2101 1.549 15.8777 1.48224C16.2782 1.44886 16.612 1.38211 16.8457 1.31535C17.0793 1.24859 17.2796 1.14846 17.3797 1.04832C17.4799 0.948184 17.5466 0.814667 17.5466 0.681152H18.3143C18.3143 0.98156 18.2476 1.21521 18.0807 1.41548C17.9138 1.61576 17.6801 1.74927 17.313 1.88279C16.9458 2.0163 16.5119 2.11644 15.9111 2.18319C15.2101 2.24995 14.7094 2.51698 14.3756 2.91753C14.0419 3.31807 13.9083 3.91889 13.9083 4.75335V5.08714H13.6413C13.7081 4.71997 13.8416 4.38619 14.0752 4.11916C14.3089 3.85213 14.6093 3.61848 14.9431 3.48496C15.3102 3.31807 15.6774 3.25131 16.1113 3.25131C16.612 3.25131 17.0793 3.35145 17.4465 3.5851C17.847 3.78537 18.114 4.08578 18.3477 4.48632C18.5813 4.85349 18.6815 5.28741 18.6815 5.78809C18.6815 6.28877 18.5813 6.75607 18.3477 7.12324C18.114 7.52378 17.7803 7.82419 17.3797 8.02446C16.9458 8.22474 16.4785 8.32487 15.9111 8.32487ZM15.9111 7.6573C16.3116 7.6573 16.6454 7.59054 16.9458 7.42365C17.2462 7.25675 17.4799 7.05648 17.6467 6.75607C17.8136 6.45567 17.8804 6.12188 17.8804 5.75471C17.8804 5.18728 17.7135 4.71998 17.3463 4.38619C17.0125 4.0524 16.5119 3.88551 15.9111 3.88551C15.5105 3.88551 15.1767 3.95226 14.8763 4.11916C14.5759 4.28605 14.3422 4.48632 14.1754 4.78673C14.0085 5.08714 13.9083 5.42093 13.9083 5.78809C13.9083 6.35553 14.0752 6.82283 14.4424 7.15662C14.8429 7.4904 15.3102 7.6573 15.9111 7.6573Z" fill="black"/>
<path d="M21.819 8.29135C21.1848 8.29135 20.6508 8.15783 20.2502 7.85743C19.8497 7.55702 19.6494 7.15647 19.6494 6.65579C19.6494 6.32201 19.7496 6.0216 19.9498 5.78795C20.1501 5.5543 20.4171 5.35403 20.7843 5.22051C21.1515 5.087 21.5186 5.02024 21.9859 5.02024C22.3531 5.02024 22.7536 5.05362 23.1208 5.15375C23.488 5.25389 23.7884 5.3874 24.022 5.52092V4.75321C24.022 4.31929 23.8551 3.9855 23.5547 3.75185C23.2543 3.55158 22.8204 3.41806 22.3197 3.41806C21.9859 3.41806 21.6521 3.45144 21.4185 3.55158C21.1848 3.65171 20.9846 3.75185 20.8177 3.91874C20.6842 4.08564 20.6174 4.21915 20.6174 4.41942H19.8163C19.8163 4.11901 19.9165 3.81861 20.1167 3.58496C20.317 3.3513 20.6174 3.15103 20.9846 2.98414C21.3517 2.85062 21.7857 2.75049 22.2863 2.75049C22.787 2.75049 23.1876 2.81724 23.5547 2.98414C23.9219 3.15103 24.2223 3.3513 24.3892 3.65171C24.5895 3.95212 24.6896 4.31929 24.6896 4.75321V7.02296C24.6896 7.18985 24.723 7.32337 24.8231 7.4235C24.8899 7.52364 25.0234 7.55702 25.1569 7.55702C25.2904 7.55702 25.4239 7.52364 25.4907 7.49026V8.12446C25.3238 8.19121 25.1569 8.22459 24.9566 8.22459C24.723 8.22459 24.5227 8.15784 24.3892 8.0577C24.2223 7.95756 24.1222 7.79067 24.0554 7.5904H24.022C23.7884 7.79067 23.4546 7.99094 23.0874 8.12446C22.6869 8.22459 22.2863 8.29135 21.819 8.29135ZM21.9859 7.62378C22.3865 7.62378 22.7536 7.55702 23.1208 7.45688C23.488 7.32337 23.7884 7.15647 23.9886 6.9562V6.12173C23.7884 5.98822 23.488 5.88808 23.1542 5.78795C22.8204 5.68781 22.4532 5.65443 22.1194 5.65443C21.6188 5.65443 21.2182 5.75457 20.8844 5.92146C20.5506 6.08836 20.3837 6.32201 20.3837 6.65579C20.3837 6.98958 20.5173 7.25661 20.8177 7.39013C21.1181 7.55702 21.5186 7.62378 21.9859 7.62378Z" fill="black"/>
<path d="M26.5588 8.19124V2.88403H27.2932V8.19124H26.5588ZM26.926 5.78798V5.1204H31.1651V5.78798H26.926ZM30.7645 8.19124V2.88403H31.4989V8.19124H30.7645Z" fill="black"/>
<path d="M35.638 8.3249C35.0705 8.3249 34.6032 8.19139 34.1693 7.95774C33.7354 7.72409 33.4016 7.3903 33.1679 6.95638C32.9343 6.52245 32.8008 6.05515 32.8008 5.52109C32.8008 4.98703 32.9343 4.48635 33.1679 4.08581C33.4016 3.65189 33.7354 3.3181 34.1693 3.08445C34.6032 2.8508 35.0705 2.71729 35.638 2.71729C36.1386 2.71729 36.606 2.81742 36.9731 3.01769C37.3403 3.21796 37.6407 3.45162 37.841 3.75202C38.0412 4.05243 38.1747 4.38622 38.2415 4.72001H37.4738C37.3737 4.31946 37.1734 3.98567 36.873 3.75202C36.5392 3.51837 36.1386 3.38486 35.6713 3.38486C35.2708 3.38486 34.9036 3.48499 34.6032 3.65189C34.3028 3.81878 34.0692 4.08581 33.9023 4.4196C33.7354 4.75338 33.6352 5.12055 33.6352 5.52109C33.6352 5.92164 33.7354 6.2888 33.9023 6.62259C34.0692 6.95638 34.3028 7.19003 34.6032 7.3903C34.9036 7.55719 35.2708 7.65733 35.6713 7.65733C36.0385 7.65733 36.3389 7.59057 36.6059 7.49044C36.873 7.35692 37.1066 7.19003 37.2401 6.98976C37.407 6.78948 37.5072 6.55583 37.5405 6.2888H38.3083C38.2749 6.62259 38.1414 6.95638 37.9411 7.29016C37.7408 7.59057 37.407 7.8576 37.0399 8.05787C36.6059 8.22477 36.172 8.3249 35.638 8.3249Z" fill="black"/>
<path d="M39.5767 8.19124V2.88403H40.311V8.19124C40.311 8.19124 39.5767 8.19124 39.5767 8.19124ZM43.4486 8.19124L40.2442 5.48757L43.2483 2.88403H44.2163L40.9786 5.65446L41.0119 5.2873L44.4833 8.19124H43.4486Z" fill="black"/>
<path d="M45.3176 8.19124V2.88403H46.0519V7.22326H46.0853L49.49 2.88403H50.3244V8.19124H49.5901V3.85201H49.5567L46.1521 8.19124H45.3176Z" fill="black"/>
<path d="M51.9934 8.19132V2.88412H52.7277V7.22334H52.7611L56.1657 2.88412H57.0002V8.19132H56.2659V3.8521H56.1991L52.7945 8.19132H51.9934ZM54.4968 1.91613C53.9961 1.91613 53.5956 1.78262 53.2952 1.54897C52.9948 1.31532 52.8612 0.948152 52.8612 0.547607H53.4954C53.4954 0.814637 53.5956 1.01491 53.7625 1.14842C53.9294 1.28194 54.1964 1.38207 54.4968 1.38207C54.7972 1.38207 55.0642 1.31532 55.2311 1.14842C55.398 1.01491 55.4982 0.814637 55.4982 0.547607H56.1324C56.1324 0.98153 55.9988 1.31532 55.6984 1.54897C55.398 1.78262 54.9975 1.91613 54.4968 1.91613Z" fill="black"/>
<path d="M61.2058 8.19124V2.88403H65.278V3.55161H61.9401V8.19124H61.2058Z" fill="black"/>
<path d="M68.5491 8.3249C68.015 8.3249 67.5144 8.19139 67.0804 7.95774C66.6465 7.72409 66.3461 7.3903 66.0791 6.95638C65.8454 6.52245 65.7119 6.05515 65.7119 5.52109C65.7119 4.98703 65.8454 4.48635 66.0791 4.08581C66.3127 3.65189 66.6465 3.3181 67.0804 3.08445C67.5144 2.8508 67.9817 2.71729 68.5491 2.71729C69.0832 2.71729 69.5838 2.8508 70.0178 3.08445C70.4517 3.3181 70.7521 3.65189 71.0191 4.08581C71.2528 4.51973 71.3863 4.98703 71.3863 5.52109C71.3863 6.05515 71.2528 6.55583 71.0191 6.95638C70.7855 7.3903 70.4517 7.69071 70.0178 7.95774C69.5505 8.19139 69.0832 8.3249 68.5491 8.3249ZM68.5491 7.65733C68.9496 7.65733 69.3168 7.55719 69.6172 7.3903C69.9176 7.22341 70.1513 6.95638 70.3182 6.62259C70.4851 6.2888 70.5518 5.92164 70.5518 5.52109C70.5518 5.12055 70.4851 4.75338 70.3182 4.4196C70.1513 4.08581 69.9176 3.85216 69.6172 3.65189C69.3168 3.45161 68.9496 3.38486 68.5491 3.38486C68.1486 3.38486 67.7814 3.48499 67.481 3.65189C67.1806 3.81878 66.9469 4.08581 66.78 4.4196C66.6131 4.75338 66.5464 5.12055 66.5464 5.52109C66.5464 5.92164 66.6131 6.2888 66.78 6.62259C66.9469 6.95638 67.1806 7.19003 67.481 7.3903C67.748 7.55719 68.1152 7.65733 68.5491 7.65733Z" fill="black"/>
<path d="M75.1582 8.3249C74.5908 8.3249 74.1235 8.19139 73.6896 7.95774C73.2557 7.72409 72.9219 7.3903 72.6882 6.95638C72.4546 6.52245 72.321 6.05515 72.321 5.52109C72.321 4.98703 72.4546 4.48635 72.6882 4.08581C72.9219 3.65189 73.2557 3.3181 73.6896 3.08445C74.1235 2.8508 74.5908 2.71729 75.1582 2.71729C75.6589 2.71729 76.1262 2.81742 76.4934 3.01769C76.8605 3.21796 77.161 3.45162 77.3612 3.75202C77.5615 4.05243 77.695 4.38622 77.7618 4.72001H76.9941C76.8939 4.31946 76.6937 3.98567 76.3932 3.75202C76.0595 3.51837 75.6589 3.38486 75.1916 3.38486C74.7911 3.38486 74.4239 3.48499 74.1235 3.65189C73.8231 3.81878 73.5894 4.08581 73.4225 4.4196C73.2556 4.75338 73.1555 5.12055 73.1555 5.52109C73.1555 5.92164 73.2556 6.2888 73.4225 6.62259C73.5894 6.95638 73.8231 7.19003 74.1235 7.3903C74.4239 7.55719 74.7911 7.65733 75.1916 7.65733C75.5588 7.65733 75.8592 7.59057 76.1262 7.49044C76.3933 7.3903 76.6269 7.19003 76.7604 6.98976C76.9273 6.78948 77.0274 6.55583 77.0608 6.2888H77.8285C77.7951 6.62259 77.6616 6.95638 77.4614 7.29016C77.2611 7.59057 76.9273 7.8576 76.5601 8.05787C76.1262 8.22477 75.6589 8.3249 75.1582 8.3249Z" fill="black"/>
<path d="M79.3973 10.4277C79.2638 10.4277 79.1636 10.4277 79.0635 10.3943C78.9634 10.3609 78.8632 10.3609 78.7631 10.3275V9.65997C78.8632 9.69335 78.9634 9.72673 79.0301 9.72673C79.1303 9.72673 79.197 9.76011 79.2972 9.76011C79.4974 9.76011 79.6643 9.72673 79.8312 9.6266C79.9981 9.52646 80.1316 9.39295 80.2651 9.22605C80.3986 9.02578 80.5322 8.72537 80.6991 8.39159L80.866 7.99104L80.8326 8.39159L78.1289 2.91748H78.9634L81.133 7.35684H81.1664L83.1023 2.91748H83.9034L81.5001 8.42496C81.2999 8.92564 81.0996 9.32619 80.8993 9.59322C80.6991 9.89363 80.4988 10.0939 80.2651 10.2274C80.0315 10.3609 79.7311 10.4277 79.3973 10.4277Z" fill="black"/>
<path d="M84.0371 9.62653V7.52367H84.1706C84.4043 7.52367 84.5712 7.42353 84.7381 7.25664C84.8716 7.08975 84.9383 6.82272 84.9717 6.48893L85.2054 2.88403H89.3109V7.75732H88.5766V3.55161H85.8729L85.706 6.32204C85.6727 6.62244 85.6393 6.88948 85.5392 7.08975C85.4724 7.29002 85.3722 7.42353 85.2387 7.49029V7.52367H90.1454V9.62653H89.4111V8.19124H84.7714V9.62653H84.0371Z" fill="black"/>
<path d="M93.0493 8.29135C92.4151 8.29135 91.881 8.15783 91.4805 7.85743C91.0799 7.55702 90.8796 7.15647 90.8796 6.65579C90.8796 6.32201 90.9798 6.0216 91.18 5.78795C91.3803 5.5543 91.6473 5.35403 92.0145 5.22051C92.3817 5.087 92.7488 5.02024 93.2161 5.02024C93.5833 5.02024 93.9838 5.05362 94.351 5.15375C94.7182 5.25389 95.0186 5.3874 95.2522 5.52092V4.75321C95.2522 4.31929 95.0853 3.9855 94.7849 3.75185C94.4845 3.55158 94.0506 3.41806 93.5499 3.41806C93.2161 3.41806 92.8824 3.45144 92.6487 3.55158C92.4151 3.65171 92.2148 3.75185 92.0479 3.91874C91.9144 4.08564 91.8476 4.21915 91.8476 4.41942H91.0799C91.0799 4.11901 91.18 3.81861 91.3803 3.58496C91.5806 3.3513 91.881 3.15103 92.2482 2.98414C92.6153 2.81724 93.0493 2.75049 93.5499 2.75049C94.0506 2.75049 94.4512 2.81724 94.8183 2.98414C95.1855 3.15103 95.4525 3.3513 95.6528 3.65171C95.8531 3.95212 95.9532 4.31929 95.9532 4.75321V7.02296C95.9532 7.18985 95.9866 7.32337 96.0867 7.4235C96.1535 7.52364 96.287 7.55702 96.4205 7.55702C96.554 7.55702 96.6875 7.52364 96.7543 7.49026V8.12446C96.5874 8.19121 96.4205 8.22459 96.2202 8.22459C95.9866 8.22459 95.7863 8.15784 95.6528 8.0577C95.4859 7.95756 95.3858 7.79067 95.319 7.5904H95.2522C95.0186 7.79067 94.6848 7.99094 94.3176 8.12446C93.9171 8.22459 93.4832 8.29135 93.0493 8.29135ZM93.2161 7.62378C93.6167 7.62378 93.9838 7.55702 94.351 7.45688C94.7182 7.32337 95.0186 7.15647 95.2189 6.9562V6.12173C95.0186 5.98822 94.7182 5.88808 94.3844 5.78795C94.0506 5.68781 93.6834 5.65443 93.3496 5.65443C92.849 5.65443 92.4484 5.75457 92.1146 5.92146C91.7808 6.08836 91.614 6.32201 91.614 6.65579C91.614 6.98958 91.7475 7.25661 92.0479 7.39013C92.3483 7.55702 92.7488 7.62378 93.2161 7.62378Z" fill="black"/>
<path d="M97.7888 10.3274V2.884H98.4898V3.85198H98.5232C98.7234 3.5182 98.9905 3.25117 99.391 3.0509C99.7916 2.85062 100.192 2.75049 100.626 2.75049C101.16 2.75049 101.661 2.884 102.061 3.11765C102.462 3.3513 102.796 3.68509 103.029 4.11901C103.263 4.55294 103.363 5.02024 103.363 5.58768C103.363 6.15511 103.263 6.62242 103.029 7.05634C102.796 7.49026 102.495 7.79067 102.061 8.0577C101.661 8.29135 101.193 8.42486 100.626 8.42486C100.359 8.42486 100.092 8.39149 99.8249 8.29135C99.5579 8.19121 99.3242 8.09108 99.0906 7.92418C98.8569 7.75729 98.6901 7.55702 98.5565 7.35675H98.5232V10.4276L97.7888 10.3274ZM100.526 7.65715C100.926 7.65715 101.294 7.55702 101.594 7.39013C101.894 7.22323 102.128 6.9562 102.295 6.62242C102.462 6.28863 102.562 5.92146 102.562 5.52092C102.562 5.12037 102.462 4.71983 102.295 4.41942C102.128 4.08564 101.894 3.85198 101.594 3.68509C101.294 3.5182 100.926 3.41806 100.526 3.41806C100.125 3.41806 99.7916 3.5182 99.4911 3.68509C99.1907 3.85198 98.9571 4.11901 98.7568 4.41942C98.5899 4.75321 98.4898 5.12038 98.4898 5.5543C98.4898 5.98822 98.5899 6.32201 98.7568 6.65579C98.9237 6.98958 99.1574 7.22323 99.4911 7.4235C99.7916 7.5904 100.159 7.65715 100.526 7.65715Z" fill="black"/>
<path d="M107.168 8.3249C106.634 8.3249 106.133 8.19139 105.7 7.95774C105.266 7.72409 104.932 7.3903 104.698 6.95638C104.465 6.52245 104.331 6.05515 104.331 5.52109C104.331 4.98703 104.465 4.48635 104.698 4.08581C104.932 3.65189 105.266 3.3181 105.7 3.08445C106.133 2.8508 106.601 2.71729 107.168 2.71729C107.669 2.71729 108.136 2.81742 108.503 3.01769C108.871 3.21796 109.171 3.45162 109.371 3.75202C109.572 4.05243 109.705 4.38622 109.772 4.72001H109.004C108.904 4.31946 108.704 3.98567 108.403 3.75202C108.069 3.51837 107.669 3.38486 107.202 3.38486C106.801 3.38486 106.434 3.48499 106.133 3.65189C105.833 3.81878 105.566 4.08581 105.433 4.4196C105.266 4.75338 105.166 5.12055 105.166 5.52109C105.166 5.92164 105.266 6.2888 105.433 6.62259C105.599 6.95638 105.833 7.19003 106.133 7.3903C106.434 7.55719 106.801 7.65733 107.202 7.65733C107.569 7.65733 107.869 7.59057 108.136 7.49044C108.403 7.3903 108.604 7.19003 108.77 6.98976C108.937 6.78948 109.037 6.55583 109.071 6.2888H109.839C109.805 6.62259 109.672 6.95638 109.471 7.29016C109.271 7.59057 108.971 7.8576 108.57 8.05787C108.136 8.22477 107.669 8.3249 107.168 8.3249Z" fill="black"/>
<path d="M112.442 8.19124V3.55161H110.272V2.88403H115.379V3.55161H113.176V8.19124H112.442Z" fill="black"/>
<path d="M116.448 8.19124V2.88403H119.351C119.919 2.88403 120.319 3.01755 120.62 3.2512C120.92 3.48485 121.054 3.81864 121.054 4.25256C121.054 4.51959 120.987 4.75324 120.854 4.95351C120.72 5.15378 120.553 5.2873 120.319 5.42081V5.45419C120.653 5.52095 120.887 5.68784 121.087 5.92149C121.254 6.15514 121.354 6.42217 121.354 6.72258C121.354 7.22326 121.187 7.59043 120.854 7.82408C120.52 8.05773 120.019 8.19124 119.351 8.19124H116.448ZM119.452 7.52367C119.819 7.52367 120.119 7.45691 120.286 7.29002C120.486 7.1565 120.586 6.92285 120.586 6.65582C120.586 6.35541 120.486 6.15514 120.286 6.02163C120.086 5.88811 119.819 5.78798 119.452 5.78798H116.815V5.15378H119.251C119.585 5.15378 119.819 5.08703 120.019 4.95351C120.186 4.82 120.286 4.61972 120.286 4.35269C120.286 4.08566 120.186 3.88539 120.019 3.75188C119.852 3.61836 119.585 3.55161 119.251 3.55161H117.182V7.52367H119.452Z" fill="black"/>
<path d="M125.193 8.3249C124.625 8.3249 124.158 8.19139 123.724 7.99112C123.29 7.75746 122.957 7.42368 122.723 6.98976C122.489 6.55583 122.356 6.08853 122.356 5.52109C122.356 4.98703 122.489 4.48635 122.723 4.08581C122.957 3.65189 123.29 3.3181 123.724 3.08445C124.158 2.8508 124.625 2.71729 125.193 2.71729C125.76 2.71729 126.228 2.8508 126.628 3.08445C127.029 3.3181 127.363 3.65189 127.596 4.05243C127.83 4.45298 127.93 4.92028 127.93 5.45434C127.93 5.52109 127.93 5.55447 127.93 5.62123C127.93 5.68799 127.93 5.75474 127.897 5.78812H122.823V5.15393H127.396L127.162 5.45434V5.32082C127.162 4.95366 127.062 4.61987 126.895 4.31946C126.728 4.01905 126.495 3.7854 126.194 3.61851C125.894 3.45162 125.56 3.38486 125.16 3.38486C124.792 3.38486 124.392 3.48499 124.091 3.65189C123.791 3.81878 123.524 4.08581 123.357 4.4196C123.19 4.75338 123.09 5.12055 123.09 5.52109C123.09 5.92164 123.19 6.2888 123.357 6.62259C123.524 6.95638 123.758 7.19003 124.091 7.3903C124.392 7.55719 124.759 7.65733 125.16 7.65733C125.627 7.65733 126.027 7.55719 126.328 7.3903C126.628 7.22341 126.862 6.98976 126.995 6.62259H127.796C127.696 6.98976 127.529 7.29016 127.296 7.52381C127.062 7.75746 126.762 7.95774 126.395 8.09125C126.061 8.25815 125.66 8.3249 125.193 8.3249Z" fill="black"/>
<path d="M129.265 8.19124V2.88403H129.999V8.19124H129.265ZM129.632 5.78798V5.1204H133.871V5.78798H129.632ZM133.437 8.19124V2.88403H134.172V8.19124H133.437Z" fill="black"/>
<path d="M135.874 8.19124V2.88403H136.608V8.19124H135.874ZM136.241 5.78798V5.1204H140.48V5.78798H136.241ZM140.08 8.19124V2.88403H140.814V8.19124H140.08Z" fill="black"/>
<path d="M142.483 8.19124V2.88403H143.217V7.52367H144.319C144.853 7.52367 145.253 7.42353 145.487 7.25664C145.721 7.08975 145.854 6.78934 145.854 6.42217C145.854 6.05501 145.721 5.7546 145.487 5.58771C145.253 5.42081 144.853 5.32068 144.319 5.32068H142.883V4.6531H144.385C145.12 4.6531 145.687 4.82 146.088 5.1204C146.488 5.42081 146.689 5.85474 146.689 6.45555C146.689 7.05637 146.488 7.49029 146.088 7.7907C145.687 8.09111 145.12 8.258 144.385 8.258L142.483 8.19124ZM147.59 8.19124V2.88403H148.324V8.19124H147.59Z" fill="black"/>
<path d="M149.993 8.19132V2.88412H150.727V7.22334H150.761L154.166 2.88412H155V8.19132H154.266V3.8521H154.232L150.828 8.19132H149.993ZM152.497 1.91613C151.996 1.91613 151.595 1.78262 151.295 1.54897C150.995 1.31532 150.861 0.948152 150.861 0.547607H151.495C151.495 0.814637 151.595 1.01491 151.762 1.14842C151.929 1.28194 152.196 1.38207 152.497 1.38207C152.83 1.38207 153.064 1.31532 153.231 1.14842C153.398 1.01491 153.498 0.814637 153.498 0.547607H154.132C154.132 0.98153 153.999 1.31532 153.698 1.54897C153.398 1.78262 152.997 1.91613 152.497 1.91613Z" fill="black"/>
<path d="M2.79315 21.1422C2.15895 21.1422 1.62489 21.0087 1.22435 20.7083C0.823803 20.4078 0.623535 20.0073 0.623535 19.5066C0.623535 19.1728 0.723679 18.8724 0.923951 18.6388C1.12422 18.4051 1.39125 18.2049 1.75842 18.0713C2.12558 17.9378 2.49274 17.8711 2.96004 17.8711C3.32721 17.8711 3.72776 17.9044 4.09493 18.0046C4.46209 18.1047 4.76248 18.2382 4.99614 18.3717V17.604C4.99614 17.1701 4.82925 16.8363 4.52885 16.6027C4.22844 16.4024 3.79451 16.2689 3.29383 16.2689C2.96004 16.2689 2.62625 16.3023 2.3926 16.4024C2.12557 16.5025 1.95868 16.6027 1.79179 16.7696C1.65827 16.9365 1.59153 17.07 1.59153 17.2703H0.790429C0.790429 16.9698 0.890573 16.6694 1.09084 16.4358C1.29112 16.2021 1.59152 16.0019 1.95868 15.835C2.32585 15.7015 2.75978 15.6013 3.26046 15.6013C3.76114 15.6013 4.16168 15.6681 4.52885 15.835C4.89601 16.0019 5.19642 16.2021 5.36331 16.5025C5.56358 16.8029 5.66371 17.1701 5.66371 17.604V19.8738C5.66371 20.0407 5.6971 20.1742 5.79723 20.2743C5.86399 20.3745 5.9975 20.4078 6.13102 20.4078C6.26453 20.4078 6.39805 20.3745 6.46481 20.3411V20.9753C6.29791 21.042 6.13103 21.0754 5.93075 21.0754C5.6971 21.0754 5.49683 21.0087 5.36331 20.9085C5.19642 20.8084 5.09628 20.6415 5.02953 20.4412H4.99614C4.76248 20.6415 4.4287 20.8418 4.06154 20.9753C3.66099 21.0754 3.22707 21.1422 2.79315 21.1422ZM2.96004 20.4746C3.36059 20.4746 3.72776 20.4078 4.09493 20.3077C4.46209 20.1742 4.76249 20.0073 4.96276 19.807V18.9726C4.76249 18.8391 4.46208 18.7389 4.1283 18.6388C3.79451 18.5386 3.42735 18.5053 3.09357 18.5053C2.59289 18.5053 2.19234 18.6054 1.85855 18.7723C1.52476 18.9392 1.35787 19.1728 1.35787 19.5066C1.35787 19.8404 1.49138 20.1074 1.79179 20.241C2.0922 20.3745 2.45936 20.4746 2.96004 20.4746Z" fill="black"/>
<path d="M7.49951 21.0421V15.7349H11.5717V16.4024H8.23385V21.0421H7.49951Z" fill="black"/>
<path d="M12.5398 23.1783V15.7348H13.2407V16.7028H13.2741C13.4744 16.369 13.7414 16.102 14.142 15.9017C14.5425 15.7015 14.9431 15.6013 15.377 15.6013C15.911 15.6013 16.4117 15.7348 16.8123 15.9685C17.2128 16.2021 17.5466 16.5359 17.7803 16.9698C18.0139 17.4038 18.114 17.8711 18.114 18.4385C18.114 19.0059 18.0139 19.4732 17.7803 19.9072C17.5466 20.3411 17.2462 20.6415 16.8123 20.9085C16.4117 21.1422 15.9444 21.2757 15.377 21.2757C15.11 21.2757 14.8429 21.2423 14.5759 21.1422C14.3089 21.042 14.0752 20.9419 13.8416 20.775C13.6079 20.6081 13.441 20.4078 13.3075 20.2076H13.2741V23.2784L12.5398 23.1783ZM15.3102 20.508C15.7108 20.508 16.0779 20.4078 16.3783 20.241C16.6788 20.0741 16.9124 19.807 17.0793 19.4732C17.2462 19.1395 17.3463 18.7723 17.3463 18.3717C17.3463 17.9712 17.2462 17.5707 17.0793 17.2703C16.9124 16.9365 16.6788 16.7028 16.3783 16.5359C16.0779 16.369 15.7108 16.2689 15.3102 16.2689C14.9097 16.2689 14.5759 16.369 14.2755 16.5359C13.9751 16.7028 13.7414 16.9698 13.5412 17.2703C13.3409 17.5707 13.2741 17.9712 13.2741 18.4051C13.2741 18.8391 13.3743 19.1728 13.5412 19.5066C13.708 19.8404 13.9417 20.0741 14.2755 20.2743C14.5759 20.4078 14.9097 20.508 15.3102 20.508Z" fill="black"/>
<path d="M21.2851 21.1422C20.6509 21.1422 20.1168 21.0087 19.7163 20.7083C19.3157 20.4078 19.1155 20.0073 19.1155 19.5066C19.1155 19.1728 19.2156 18.8724 19.4159 18.6388C19.6161 18.4051 19.8832 18.2049 20.2503 18.0713C20.6175 17.9378 20.9847 17.8711 21.452 17.8711C21.8192 17.8711 22.2197 17.9044 22.5868 18.0046C22.954 18.1047 23.2544 18.2382 23.4881 18.3717V17.604C23.4881 17.1701 23.3212 16.8363 23.0208 16.6027C22.7204 16.4024 22.2865 16.2689 21.7858 16.2689C21.452 16.2689 21.1182 16.3023 20.8845 16.4024C20.6509 16.5025 20.4506 16.6027 20.2837 16.7696C20.1502 16.9365 20.0834 17.07 20.0834 17.2703H19.3157C19.3157 16.9698 19.4159 16.6694 19.6162 16.4358C19.8164 16.2021 20.1168 16.0019 20.484 15.835C20.8512 15.7015 21.2851 15.6013 21.7858 15.6013C22.2865 15.6013 22.687 15.6681 23.0542 15.835C23.4213 16.0019 23.7217 16.2021 23.8886 16.5025C24.0889 16.8029 24.189 17.1701 24.189 17.604V19.8738C24.189 20.0407 24.2224 20.1742 24.3225 20.2743C24.3893 20.3745 24.5228 20.4078 24.6563 20.4078C24.7898 20.4078 24.9234 20.3745 24.9901 20.3411V20.9753C24.8232 21.042 24.6563 21.0754 24.4561 21.0754C24.2224 21.0754 24.0221 21.0087 23.8886 20.9085C23.7217 20.8084 23.6216 20.6415 23.5548 20.4412H23.4881C23.2544 20.6415 22.9206 20.8418 22.5535 20.9753C22.1196 21.0754 21.719 21.1422 21.2851 21.1422ZM21.4186 20.4746C21.8191 20.4746 22.1863 20.4078 22.5535 20.3077C22.9206 20.1742 23.221 20.0073 23.4213 19.807V18.9726C23.221 18.8391 22.9206 18.7389 22.5868 18.6388C22.2531 18.5386 21.8859 18.5053 21.5521 18.5053C21.0514 18.5053 20.6509 18.6054 20.3171 18.7723C19.9833 18.9392 19.8164 19.1728 19.8164 19.5066C19.8164 19.8404 19.9499 20.1074 20.2503 20.241C20.5507 20.3745 20.9513 20.4746 21.4186 20.4746Z" fill="black"/>
<path d="M25.9915 23.1783V15.7348H26.6924V16.7028H26.7258C26.9261 16.369 27.1931 16.102 27.5936 15.9017C27.9942 15.7015 28.3947 15.6013 28.8286 15.6013C29.3627 15.6013 29.8634 15.7348 30.2639 15.9685C30.6645 16.2021 30.9983 16.5359 31.2319 16.9698C31.4656 17.4038 31.5657 17.8711 31.5657 18.4385C31.5657 19.0059 31.4656 19.4732 31.2319 19.9072C30.9983 20.3411 30.6978 20.6415 30.2639 20.9085C29.8634 21.1422 29.3961 21.2757 28.8286 21.2757C28.5616 21.2757 28.2946 21.2423 28.0275 21.1422C27.7605 21.042 27.5269 20.9419 27.2932 20.775C27.0596 20.6081 26.8927 20.4078 26.7592 20.2076H26.7258V23.2784L25.9915 23.1783ZM28.7619 20.508C29.1624 20.508 29.5296 20.4078 29.83 20.241C30.1304 20.0741 30.3641 19.807 30.5309 19.4732C30.6978 19.1395 30.798 18.7723 30.798 18.3717C30.798 17.9712 30.6978 17.5707 30.5309 17.2703C30.3641 16.9365 30.1304 16.7028 29.83 16.5359C29.5296 16.369 29.1624 16.2689 28.7619 16.2689C28.3613 16.2689 28.0276 16.369 27.7272 16.5359C27.4267 16.7028 27.1931 16.9698 26.9928 17.2703C26.8259 17.604 26.7258 17.9712 26.7258 18.4051C26.7258 18.8391 26.8259 19.1728 26.9928 19.5066C27.1597 19.8404 27.3934 20.0741 27.7272 20.2743C27.9942 20.4078 28.3613 20.508 28.7619 20.508Z" fill="black"/>
<path d="M32.9009 21.0421V15.7349H33.6352V21.0421H32.9009ZM33.268 18.6388V17.9712H37.5071V18.6388H33.268ZM37.0732 21.0421V15.7349H37.8075V21.0421H37.0732Z" fill="black"/>
<path d="M39.5098 21.0421V15.7349H40.2441V20.3745H41.3456C41.8797 20.3745 42.2802 20.2744 42.5138 20.1075C42.7475 19.9406 42.881 19.6402 42.881 19.273C42.881 18.9058 42.7475 18.6054 42.5138 18.4385C42.2468 18.2716 41.8797 18.1715 41.3456 18.1715H39.9103V17.5039H41.4124C42.1467 17.5039 42.7141 17.6708 43.1147 17.9712C43.5152 18.2716 43.7155 18.7056 43.7155 19.3064C43.7155 19.9072 43.5152 20.3411 43.1147 20.6415C42.7141 20.9419 42.1467 21.1088 41.4124 21.1088L39.5098 21.0421ZM44.5833 21.0421V15.7349H45.3177V21.0421H44.5833Z" fill="black"/>
<path d="M47.02 21.0421V15.7349H47.7544V20.0741H47.7877L51.1924 15.7349H52.0268V21.0421H51.2925V16.7029H51.2591L47.8545 21.0421H47.02ZM49.5234 14.7335C49.0227 14.7335 48.6222 14.6 48.3218 14.3664C48.0214 14.1327 47.8879 13.7655 47.8879 13.365H48.5221C48.5221 13.632 48.6222 13.8323 48.7891 13.9658C48.956 14.0993 49.223 14.1995 49.5234 14.1995C49.8238 14.1995 50.0909 14.1327 50.2578 13.9658C50.4246 13.8323 50.5248 13.632 50.5248 13.365H51.159C51.159 13.7989 51.0255 14.1327 50.725 14.3664C50.4246 14.6334 50.0241 14.7335 49.5234 14.7335Z" fill="black"/>
<path d="M56.6664 23.2785C56.5328 23.2785 56.4327 23.2785 56.3326 23.2451C56.2324 23.2118 56.1323 23.2118 56.0322 23.1784V22.5108C56.1323 22.5442 56.2324 22.5776 56.2992 22.5776C56.3993 22.5776 56.4661 22.6109 56.5662 22.6109C56.7665 22.6109 56.9334 22.5776 57.1003 22.4774C57.2672 22.4107 57.4007 22.2438 57.5342 22.0769C57.6677 21.8766 57.8012 21.5762 57.9681 21.2424L58.135 20.8419L58.1016 21.2424L55.3979 15.7683H56.2324L58.402 20.2077H58.4354L60.3714 15.7683H61.1725L58.7692 21.2758C58.5689 21.7765 58.3687 22.177 58.1684 22.444C57.9681 22.7445 57.7678 22.9447 57.5342 23.0782C57.3005 23.1784 57.0001 23.2785 56.6664 23.2785Z" fill="black"/>
<path d="M62.1741 21.0421V15.7349H62.9084V21.0421H62.1741ZM62.5412 18.6388V17.9712H66.7803V18.6388H62.5412ZM66.3798 21.0421V15.7349H67.1141V21.0421H66.3798Z" fill="black"/>
<path d="M68.783 21.0421V15.7349H69.5173V20.0741H69.5507L72.9553 15.7349H73.7898V21.0421H73.0554V16.7028H73.0221L69.6174 21.0421H68.783Z" fill="black"/>
<path d="M75.4919 21.0421V15.7349H78.3959C78.9633 15.7349 79.3639 15.8684 79.6643 16.102C79.9647 16.3357 80.0982 16.6695 80.0982 17.1034C80.0982 17.3704 80.0314 17.6041 79.8979 17.8043C79.7644 18.0046 79.5975 18.1381 79.3639 18.2716V18.305C79.6977 18.3718 79.9313 18.5387 80.1316 18.7723C80.3319 19.006 80.3986 19.273 80.3986 19.5734C80.3986 20.0741 80.2317 20.4413 79.8979 20.6749C79.5641 20.9419 79.0635 21.0421 78.3959 21.0421H75.4919ZM78.4627 20.3745C78.8298 20.3745 79.1302 20.3077 79.2971 20.1408C79.4974 20.0073 79.5975 19.7737 79.5975 19.5067C79.5975 19.2396 79.4974 19.006 79.2971 18.8725C79.0968 18.7389 78.8298 18.6388 78.4627 18.6388H75.8257V18.0046H78.2624C78.5962 18.0046 78.8298 17.9379 79.0301 17.8043C79.197 17.6708 79.2971 17.4706 79.2971 17.2035C79.2971 16.9365 79.197 16.7362 79.0301 16.6027C78.8632 16.4692 78.5962 16.4024 78.2624 16.4024H76.1929V20.3745H78.4627Z" fill="black"/>
<path d="M84.2039 21.1755C83.6364 21.1755 83.1691 21.042 82.7352 20.8417C82.3013 20.6081 81.9675 20.2743 81.7339 19.8403C81.5002 19.4064 81.3667 18.9391 81.3667 18.3717C81.3667 17.8042 81.5002 17.3369 81.7339 16.9364C81.9675 16.5025 82.3013 16.1687 82.7352 15.935C83.1691 15.7014 83.6364 15.5679 84.2039 15.5679C84.7713 15.5679 85.2386 15.7014 85.6392 15.935C86.0397 16.1687 86.3735 16.5025 86.6071 16.903C86.8408 17.3036 86.9409 17.7709 86.9409 18.3049C86.9409 18.3717 86.9409 18.4051 86.9409 18.4718C86.9409 18.5386 86.9409 18.6053 86.9076 18.6387H81.9008V18.0045H86.4736L86.24 18.3049V18.1714C86.24 17.8042 86.1398 17.4705 85.973 17.17C85.8061 16.8696 85.5724 16.636 85.272 16.4691C84.9716 16.3022 84.6378 16.2354 84.2373 16.2354C83.8701 16.2354 83.4695 16.3356 83.1691 16.5025C82.8687 16.6694 82.6017 16.9364 82.4348 17.2702C82.2679 17.604 82.1678 17.9711 82.1678 18.3717C82.1678 18.7722 82.2679 19.1394 82.4348 19.4732C82.6017 19.807 82.8353 20.0406 83.1691 20.2409C83.4695 20.4078 83.8367 20.5079 84.2373 20.5079C84.7046 20.5079 85.1051 20.4078 85.4055 20.2409C85.7059 20.074 85.9396 19.8403 86.0731 19.4732H86.8742C86.774 19.8403 86.6072 20.1407 86.3735 20.3744C86.1399 20.6081 85.8394 20.8083 85.4723 20.9418C85.1051 21.1087 84.7046 21.1421 84.2039 21.1755Z" fill="black"/>
<path d="M88.2759 23.1783V15.7348H88.9768V16.7028H89.0102C89.2105 16.369 89.4775 16.102 89.8781 15.9017C90.2786 15.7015 90.6791 15.6013 91.1131 15.6013C91.6471 15.6013 92.1478 15.7348 92.5484 15.9685C92.9489 16.2021 93.2827 16.5359 93.5163 16.9698C93.75 17.4038 93.8501 17.8711 93.8501 18.4385C93.8501 19.0059 93.75 19.4732 93.5163 19.9072C93.2827 20.3411 92.9823 20.6415 92.5484 20.9085C92.1478 21.1422 91.6805 21.2757 91.1131 21.2757C90.846 21.2757 90.579 21.2423 90.312 21.1422C90.045 21.042 89.8113 20.9419 89.5777 20.775C89.344 20.6081 89.1771 20.4078 89.0436 20.2076H89.0102V23.2784L88.2759 23.1783ZM91.0463 20.508C91.4469 20.508 91.814 20.4078 92.1144 20.241C92.4148 20.0741 92.6485 19.807 92.8154 19.4732C92.9823 19.1395 93.0824 18.7723 93.0824 18.3717C93.0824 17.9712 92.9823 17.5707 92.8154 17.2703C92.6485 16.9365 92.4148 16.7028 92.1144 16.5359C91.814 16.369 91.4469 16.2689 91.0463 16.2689C90.6458 16.2689 90.312 16.369 90.0116 16.5359C89.7112 16.7028 89.4775 16.9698 89.2772 17.2703C89.1103 17.604 89.0102 17.9712 89.0102 18.4051C89.0102 18.8391 89.1103 19.1728 89.2772 19.5066C89.4441 19.8404 89.6778 20.0741 90.0116 20.2743C90.312 20.4078 90.6458 20.508 91.0463 20.508Z" fill="black"/>
<path d="M97.6555 21.1755C97.1215 21.1755 96.6208 21.042 96.1869 20.8083C95.753 20.5747 95.4192 20.2409 95.1855 19.807C94.9519 19.373 94.8184 18.9057 94.8184 18.3717C94.8184 17.8376 94.9519 17.3369 95.1855 16.9364C95.4192 16.5359 95.753 16.1687 96.1869 15.935C96.6208 15.7014 97.0881 15.5679 97.6555 15.5679C98.1562 15.5679 98.6235 15.668 98.9907 15.8683C99.3579 16.0685 99.6583 16.3022 99.8585 16.6026C100.059 16.903 100.192 17.2368 100.259 17.5706H99.4914C99.3912 17.17 99.191 16.8363 98.8906 16.6026C98.5568 16.369 98.1562 16.2354 97.6889 16.2354C97.2884 16.2354 96.9212 16.3356 96.6208 16.5025C96.3204 16.6694 96.0534 16.9364 95.9199 17.2702C95.753 17.604 95.6528 17.9711 95.6528 18.3717C95.6528 18.7722 95.753 19.1394 95.9199 19.4732C96.0867 19.807 96.3204 20.0406 96.6208 20.2409C96.9212 20.4078 97.2884 20.5079 97.6889 20.5079C98.0561 20.5079 98.3565 20.4412 98.6235 20.341C98.8905 20.2075 99.0908 20.0406 99.2577 19.8403C99.4246 19.6401 99.5248 19.4064 99.5581 19.1394H100.326C100.292 19.4732 100.159 19.807 99.9587 20.1407C99.7584 20.4412 99.458 20.7082 99.0575 20.9085C98.6235 21.0754 98.1562 21.1755 97.6555 21.1755Z" fill="black"/>
<path d="M101.594 21.0421V15.7349H102.328V20.0741H102.362L105.766 15.7349H106.601V21.0421H105.866V16.7028H105.833L102.428 21.0421H101.594Z" fill="black"/>
<path d="M109.839 21.0421V16.4024H107.669V15.7349H112.776V16.4024H110.573V21.0421H109.839Z" fill="black"/>
<path d="M116.081 21.1755C115.513 21.1755 115.046 21.042 114.612 20.8417C114.178 20.6081 113.844 20.2743 113.611 19.8403C113.377 19.4064 113.243 18.9391 113.243 18.3717C113.243 17.8042 113.377 17.3369 113.611 16.9364C113.844 16.5025 114.178 16.1687 114.612 15.935C115.046 15.7014 115.513 15.5679 116.081 15.5679C116.615 15.5679 117.115 15.7014 117.516 15.935C117.916 16.1687 118.25 16.5025 118.484 16.903C118.717 17.3036 118.818 17.7709 118.818 18.3049C118.818 18.3717 118.818 18.4051 118.818 18.4718C118.818 18.5386 118.818 18.6053 118.784 18.6387H113.711V18.0045H118.284L118.05 18.3049V18.1714C118.05 17.8042 117.95 17.4705 117.783 17.17C117.616 16.8696 117.382 16.636 117.082 16.4691C116.782 16.3022 116.448 16.2354 116.047 16.2354C115.68 16.2354 115.279 16.3356 114.979 16.5025C114.679 16.6694 114.412 16.9364 114.245 17.2702C114.078 17.604 113.978 17.9711 113.978 18.3717C113.978 18.7722 114.078 19.1394 114.245 19.4732C114.412 19.807 114.645 20.0406 114.979 20.2409C115.279 20.4078 115.647 20.5079 116.047 20.5079C116.515 20.5079 116.915 20.4078 117.215 20.2409C117.516 20.074 117.75 19.8403 117.883 19.4732H118.684C118.584 19.8403 118.417 20.1407 118.183 20.3744C117.95 20.6081 117.649 20.8083 117.282 20.9418C116.982 21.1087 116.548 21.1421 116.081 21.1755Z" fill="black"/>
<path d="M121.521 21.0421V16.4024H119.352V15.7349H124.458V16.4024H122.256V21.0421H121.521Z" fill="black"/>
</svg>
