<svg width="172" height="44" viewBox="0 0 172 44" fill="none" xmlns="http://www.w3.org/2000/svg">
<path d="M38.9242 33.2784V10.0469H43.7307V33.2784H38.9242ZM53.7777 33.2784L43.3302 21.5291L53.4105 10.0469H59.0515L47.9364 22.5973L48.1701 20.2274L59.8193 33.2784H53.7777Z" fill="black"/>
<path d="M66.8288 33.6791C66.3615 33.6791 65.9276 33.6457 65.5604 33.5789C65.1599 33.5122 64.7927 33.4454 64.4589 33.3453V29.3732C65.1599 29.6069 65.8274 29.707 66.5618 29.707C67.1292 29.707 67.6299 29.6069 68.0638 29.4733C68.4977 29.3398 68.8983 29.0394 69.2654 28.6722C69.6326 28.3051 69.9664 27.8378 70.2334 27.2703L71.2014 25.301L71.1346 28.1048L60.854 10.0803H66.0611L72.6701 22.1968H72.837L78.478 10.0803H83.418L75.1401 27.2036C74.3724 28.8058 73.6047 30.0742 72.8036 31.0088C72.0359 31.9434 71.168 32.6443 70.2334 33.0782C69.2321 33.4454 68.1306 33.6791 66.8288 33.6791Z" fill="black"/>
<path d="M85.6875 33.2784V10.0469H103.445V14.0189H90.494V29.273H96.0349C97.5036 29.273 98.605 29.006 99.3394 28.4385C100.074 27.8711 100.441 27.07 100.441 25.9351C100.441 24.8336 100.074 23.9992 99.3394 23.4317C98.605 22.8643 97.5036 22.5973 96.0349 22.5973H88.1575V18.6586H96.3353C98.3714 18.6586 100.074 18.9256 101.442 19.493C102.811 20.0605 103.846 20.8616 104.546 21.9631C105.247 23.0312 105.581 24.3997 105.581 25.9685C105.581 28.3718 104.813 30.1742 103.211 31.4092C101.609 32.6442 99.3394 33.2784 96.3019 33.2784H85.6875Z" fill="black"/>
<path d="M109.754 33.2784V10.0469H127.344V14.1858H114.56V33.2451L109.754 33.2784Z" fill="black"/>
<path d="M125.342 33.2784L134.754 10.0469H140.796L150.209 33.2784H145.102L137.792 14.6865H137.625L130.282 33.2784H125.342ZM129.714 28.9726L131.25 25.0005H144.201L145.736 28.9726C145.703 28.9726 129.714 28.9726 129.714 28.9726Z" fill="black"/>
<path d="M154.915 33.6791C154.448 33.6791 154.014 33.6457 153.647 33.5789C153.246 33.5122 152.879 33.4454 152.545 33.3453V29.3732C153.246 29.6069 153.914 29.707 154.648 29.707C155.215 29.707 155.716 29.6069 156.15 29.4733C156.584 29.3398 156.984 29.0394 157.352 28.6722C157.719 28.3051 158.053 27.8378 158.32 27.2703L159.288 25.301L159.221 28.1048L148.94 10.0803H154.147L160.756 22.1968H160.923L166.564 10.0803H171.437L163.16 27.2036C162.392 28.8058 161.624 30.0742 160.823 31.0088C160.055 31.9434 159.187 32.6443 158.253 33.0782C157.318 33.4454 156.183 33.6791 154.915 33.6791Z" fill="black"/>
<path d="M0.00390625 32.5107V39.1865C3.24164 39.1865 8.64899 39.9876 11.1524 43.6926V35.882C7.91466 33.5455 3.97597 32.5775 0.00390625 32.5107Z" fill="url(#paint0_radial_17_708)"/>
<path d="M11.1525 35.882V43.6926C14.1899 40.1878 18.1286 39.1865 22.4345 39.1865V32.5107C18.429 32.5775 14.3568 33.5455 11.1525 35.882Z" fill="url(#paint1_radial_17_708)"/>
<path d="M11.2195 0L3.14189 8.07764C-0.663278 11.8828 -1.03044 17.891 2.14053 22.0967C1.8735 19.8603 2.60783 17.5906 4.17663 15.9216L4.44366 15.6546L15.6255 4.43937L11.2195 0Z" fill="url(#paint2_radial_17_708)"/>
<path d="M19.3304 8.14445L16.7937 5.60767L5.61179 16.8229C3.14177 19.2929 3.14177 23.265 5.61179 25.7016L7.78141 27.8712C7.44762 25.5014 8.21533 23.0647 9.95102 21.3624L10.0512 21.2623L20.9994 10.3141C20.5321 9.54635 19.998 8.81202 19.3304 8.14445Z" fill="url(#paint3_radial_17_708)"/>
<path d="M11.2195 22.4305C8.74944 24.9005 8.74944 28.8726 11.2195 31.3092L19.2971 23.2316C22.3679 20.1607 23.169 15.688 21.7671 11.8828L11.2195 22.4305Z" fill="url(#paint4_radial_17_708)"/>
<defs>
<radialGradient id="paint0_radial_17_708" cx="0" cy="0" r="1" gradientUnits="userSpaceOnUse" gradientTransform="translate(14.8612 27.6162) scale(37.6079)">
<stop stop-color="#EBFF00"/>
<stop offset="1" stop-color="#008900"/>
</radialGradient>
<radialGradient id="paint1_radial_17_708" cx="0" cy="0" r="1" gradientUnits="userSpaceOnUse" gradientTransform="translate(27.3005 31.7958) scale(32.5843 32.5843)">
<stop stop-color="#EBFF00"/>
<stop offset="1" stop-color="#008900"/>
</radialGradient>
<radialGradient id="paint2_radial_17_708" cx="0" cy="0" r="1" gradientUnits="userSpaceOnUse" gradientTransform="translate(11.3685 -2.39532) scale(30.5694)">
<stop stop-color="#EBFF00"/>
<stop offset="1" stop-color="#008900"/>
</radialGradient>
<radialGradient id="paint3_radial_17_708" cx="0" cy="0" r="1" gradientUnits="userSpaceOnUse" gradientTransform="translate(19.5241 0.749064) scale(33.5692 33.5692)">
<stop stop-color="#EBFF00"/>
<stop offset="1" stop-color="#008900"/>
</radialGradient>
<radialGradient id="paint4_radial_17_708" cx="0" cy="0" r="1" gradientUnits="userSpaceOnUse" gradientTransform="translate(32.6911 21.9735) scale(30.6632)">
<stop stop-color="#EBFF00"/>
<stop offset="1" stop-color="#008900"/>
</radialGradient>
</defs>
</svg>
