<svg width="146" height="31" viewBox="0 0 146 31" fill="none" xmlns="http://www.w3.org/2000/svg">
<path d="M25.3542 4.04749H24.9417V25.5403H25.3542V4.04749Z" fill="white"/>
<path fill-rule="evenodd" clip-rule="evenodd" d="M73.252 4.8418C73.7656 4.84181 74.2713 4.93534 74.7461 5.12988C75.2209 5.31671 75.6419 5.59699 76.0078 5.95508C76.3735 6.32088 76.6697 6.75677 76.8721 7.23926H76.8643L76.8564 7.24707C77.1833 8.00987 77.2768 8.84289 77.1211 9.66016C76.9654 10.4697 76.576 11.2248 75.9922 11.8086C75.6341 12.1667 75.2053 12.447 74.7383 12.6416C74.2714 12.8361 73.7734 12.9375 73.2676 12.9375C72.7616 12.9531 72.2552 12.8518 71.7959 12.6494C71.4536 12.5093 71.1654 12.2604 70.9941 11.9336V15.9111H69.0947V5.05176H70.9473V5.85352C71.1262 5.52671 71.4145 5.27004 71.7646 5.12988C72.2317 4.92749 72.7382 4.82623 73.252 4.8418ZM73.0186 6.86523C72.5748 6.85745 72.1382 6.95871 71.7412 7.15332C71.4144 7.30125 71.1576 7.55887 71.002 7.87793V9.93262C71.1498 10.2516 71.4145 10.5083 71.7412 10.6562C72.4261 10.9831 73.2127 11.038 73.9287 10.7969C74.1856 10.7035 74.4275 10.555 74.6221 10.3682C74.8165 10.1892 74.9721 9.96376 75.0811 9.72266L75.1689 9.51367C75.2321 9.31001 75.2656 9.09989 75.2598 8.88965C75.2598 8.60946 75.2056 8.32911 75.0967 8.07227C74.9877 7.83097 74.8323 7.61263 74.6377 7.43359C74.4353 7.24677 74.1934 7.10709 73.9287 7.01367C73.6331 6.91256 73.3298 6.85749 73.0186 6.86523Z" fill="white"/>
<path fill-rule="evenodd" clip-rule="evenodd" d="M45.6094 4.8418C46.1231 4.8418 46.6366 4.93534 47.1113 5.12988C47.5784 5.31671 48.0072 5.59699 48.3652 5.95508C48.731 6.32089 49.0271 6.75675 49.2295 7.23926L49.2373 7.24707C49.5642 8.00987 49.6576 8.84289 49.502 9.66016C49.3463 10.4697 48.9568 11.2248 48.373 11.8086C48.015 12.1667 47.594 12.447 47.127 12.6416C46.66 12.8361 46.162 12.9375 45.6484 12.9375C45.1424 12.9531 44.6439 12.8518 44.1846 12.6494C43.8344 12.5093 43.554 12.2526 43.375 11.9258V15.9033H41.46V5.05176H43.3125V5.85352C43.4837 5.51894 43.7798 5.26227 44.1299 5.12988C44.5969 4.92749 45.1034 4.82623 45.6094 4.8418ZM45.3916 6.86523C44.9481 6.86523 44.5121 6.95886 44.1152 7.15332C43.7883 7.30122 43.5307 7.55877 43.375 7.87793V9.93262C43.5229 10.2518 43.7883 10.5083 44.1152 10.6562C44.5122 10.8585 44.948 10.9599 45.3916 10.9443C45.7027 10.9443 46.0062 10.8979 46.3018 10.7969C46.5664 10.7035 46.8083 10.5628 47.0107 10.376C47.2052 10.197 47.3686 9.97157 47.4697 9.73047L47.542 9.51367C47.6052 9.31002 47.6396 9.09988 47.6338 8.88965C47.6338 8.60945 47.5787 8.32912 47.4697 8.07227C47.3607 7.83096 47.2053 7.61263 47.0107 7.43359C46.8083 7.24677 46.5664 7.10709 46.3018 7.01367C46.0139 6.91256 45.7028 6.85748 45.3916 6.86523Z" fill="white"/>
<path fill-rule="evenodd" clip-rule="evenodd" d="M98.6445 4.86523C99.1815 4.86523 99.7186 4.97364 100.201 5.20703C100.653 5.41721 101.058 5.7289 101.385 6.10254C101.719 6.48388 101.976 6.91978 102.147 7.38672C102.327 7.87714 102.42 8.39934 102.42 8.9209V9.2627C102.42 9.37162 102.404 9.47311 102.381 9.58203H96.6211C96.6522 9.81556 96.7378 10.0339 96.8623 10.2285C96.9946 10.423 97.1659 10.5786 97.3682 10.6953C97.8331 10.9355 98.3443 11.0514 98.8711 11.0371C99.3456 11.037 99.8124 10.9524 100.256 10.7812C100.645 10.6489 100.987 10.4071 101.252 10.0957L101.844 11.5596C101.564 11.9953 101.159 12.3377 100.692 12.5557C100.109 12.8359 99.4693 12.9765 98.8154 12.9609C98.2553 12.9609 97.6951 12.8673 97.1738 12.6729C96.6834 12.4938 96.2311 12.2214 95.8574 11.8711C95.476 11.513 95.1809 11.0842 94.9863 10.6016C94.7685 10.0646 94.6593 9.49675 94.6748 8.9209C94.6748 8.39156 94.7683 7.8693 94.9551 7.37109C95.1341 6.89641 95.4066 6.45264 95.749 6.0791C96.0993 5.70554 96.5272 5.40155 97.002 5.19141C97.5235 4.96568 98.0841 4.85746 98.6445 4.86523ZM98.6289 6.77246C98.1854 6.77248 97.7495 6.87301 97.3682 7.09082C97.1891 7.18423 97.0406 7.317 96.9238 7.48047C96.8071 7.64389 96.7293 7.82308 96.6904 8.02539H100.45C100.427 7.83857 100.365 7.65175 100.256 7.48828C100.147 7.32485 100.015 7.192 99.8516 7.09082C99.4857 6.87286 99.057 6.75689 98.6289 6.77246Z" fill="white"/>
<path fill-rule="evenodd" clip-rule="evenodd" d="M62.0889 5.16113C63.0931 4.75634 64.2146 4.75634 65.2188 5.16113C66.1994 5.56598 66.9928 6.32887 67.4131 7.30176C67.6388 7.80773 67.7559 8.36042 67.7559 8.91309L67.751 9.11523C67.7255 9.60328 67.6106 10.0818 67.4131 10.5244C67.2029 10.9991 66.8998 11.435 66.5186 11.8008C66.1372 12.1588 65.7012 12.447 65.2188 12.6416C64.2146 13.0464 63.0931 13.0464 62.0889 12.6416C61.6063 12.4392 61.1627 12.1588 60.7891 11.8008C60.4076 11.4349 60.1037 11.007 59.8936 10.5244C59.6756 10.0107 59.5586 9.46571 59.5586 8.91309C59.5586 8.3605 59.6757 7.80766 59.8936 7.30176C60.3139 6.33656 61.1081 5.56595 62.0889 5.16113ZM63.6611 6.86523C63.3732 6.86526 63.0849 6.91251 62.8125 7.01367C62.5558 7.10707 62.3224 7.24693 62.1201 7.43359C61.9255 7.61264 61.7623 7.83876 61.6611 8.08008C61.5522 8.34474 61.4893 8.62504 61.4971 8.90527C61.4971 9.18545 61.5522 9.46586 61.6611 9.73047C61.7701 9.97158 61.9257 10.1892 62.1201 10.3682C62.3224 10.5549 62.5557 10.6956 62.8125 10.7891C63.0849 10.8902 63.3732 10.9365 63.6611 10.9365C63.9491 10.9365 64.2373 10.8902 64.502 10.7891C64.7588 10.6956 64.9929 10.555 65.1953 10.3682C65.3897 10.1892 65.5454 9.97156 65.6621 9.73047C65.7789 9.47364 65.8408 9.19323 65.833 8.90527C65.833 8.62509 65.7788 8.33692 65.6621 8.08008C65.5531 7.83879 65.3899 7.61262 65.1953 7.43359C64.9929 7.25455 64.7588 7.10709 64.502 7.01367C64.2295 6.9125 63.9491 6.85745 63.6611 6.86523Z" fill="white"/>
<path fill-rule="evenodd" clip-rule="evenodd" d="M134.289 5.16895C135.301 4.77972 136.423 4.77972 137.427 5.16895C137.909 5.35577 138.353 5.6439 138.734 5.99414C139.116 6.35996 139.412 6.78797 139.622 7.27051C140.058 8.31356 140.058 9.48139 139.622 10.5244C139.412 10.9992 139.116 11.4349 138.742 11.793C138.369 12.151 137.917 12.4391 137.435 12.626C136.423 13.0152 135.301 13.0152 134.297 12.626C133.542 12.3301 132.896 11.8159 132.444 11.1543C131.993 10.485 131.76 9.69902 131.775 8.89746C131.775 8.33699 131.877 7.78428 132.103 7.27051C132.313 6.78803 132.608 6.35993 132.989 5.99414C133.363 5.63618 133.807 5.35577 134.297 5.16895H134.289ZM136.804 6.80371C136.197 6.57796 135.527 6.57796 134.92 6.80371C134.64 6.90492 134.383 7.06815 134.165 7.2627C133.947 7.46503 133.776 7.70617 133.659 7.97852C133.535 8.26654 133.472 8.5783 133.472 8.89746C133.472 9.21646 133.535 9.52754 133.659 9.81543C133.776 10.0879 133.947 10.3298 134.165 10.5322C134.383 10.7345 134.64 10.89 134.92 10.9912C135.224 11.108 135.543 11.1621 135.862 11.1621C136.181 11.1621 136.5 11.1079 136.804 10.9912C137.084 10.8901 137.341 10.7345 137.566 10.5322C137.784 10.3298 137.955 10.0879 138.072 9.81543C138.197 9.52751 138.268 9.21649 138.26 8.89746C138.26 8.5783 138.197 8.26654 138.072 7.97852C137.956 7.70619 137.784 7.46501 137.566 7.2627C137.348 7.06034 137.084 6.90489 136.804 6.80371Z" fill="white"/>
<path fill-rule="evenodd" clip-rule="evenodd" d="M119.771 5.16895C120.783 4.77972 121.905 4.77972 122.917 5.16895C123.399 5.35578 123.843 5.64396 124.217 5.99414C124.598 6.35993 124.893 6.78803 125.104 7.27051C125.321 7.78428 125.431 8.33698 125.431 8.89746C125.431 9.45787 125.321 10.0107 125.104 10.5244C124.893 10.9991 124.598 11.435 124.217 11.793C123.843 12.151 123.399 12.4313 122.917 12.6182C121.905 13.0074 120.783 13.0074 119.771 12.6182C119.289 12.4236 118.845 12.1432 118.464 11.793C118.09 11.4349 117.786 10.9992 117.576 10.5244C117.358 10.0107 117.25 9.45787 117.25 8.89746C117.25 8.33708 117.358 7.7842 117.576 7.27051C117.779 6.78798 118.083 6.35996 118.464 5.99414C118.837 5.63613 119.281 5.35577 119.771 5.16895ZM122.286 6.80371C121.679 6.57796 121.01 6.57796 120.402 6.80371C120.122 6.90489 119.865 7.06813 119.647 7.2627C119.437 7.46501 119.266 7.70619 119.142 7.97852C119.017 8.26654 118.954 8.5783 118.954 8.89746C118.954 9.20872 119.017 9.52751 119.142 9.81543C119.258 10.0801 119.429 10.3298 119.647 10.5322C119.865 10.7345 120.122 10.8901 120.402 10.9912C120.706 11.1079 121.025 11.1621 121.344 11.1621C121.663 11.1621 121.983 11.108 122.286 10.9912C122.566 10.89 122.823 10.7345 123.049 10.5322C123.267 10.3298 123.438 10.0879 123.555 9.81543C123.679 9.52754 123.742 9.21646 123.742 8.89746C123.742 8.58608 123.679 8.26654 123.555 7.97852C123.438 7.70617 123.259 7.46503 123.049 7.2627C122.831 7.06036 122.566 6.90491 122.286 6.80371Z" fill="white"/>
<path d="M130.561 6.30469L129.237 7.91602C129.44 7.96272 129.642 8.04135 129.829 8.13477C130.039 8.24374 130.234 8.39129 130.397 8.5625C130.584 8.76489 130.724 8.99896 130.825 9.24805C130.942 9.56712 130.997 9.90955 130.989 10.252C130.989 10.6022 130.926 10.9524 130.786 11.2793C130.654 11.5983 130.46 11.8867 130.211 12.1201C129.954 12.3692 129.65 12.5639 129.315 12.6885C128.942 12.8364 128.544 12.9062 128.14 12.8984C127.844 12.8984 127.548 12.8669 127.26 12.7891C127.019 12.7268 126.785 12.6332 126.567 12.501C126.388 12.3921 126.225 12.2679 126.077 12.1123C125.953 11.9801 125.859 11.8323 125.797 11.6689L126.186 10.252C126.404 10.5088 126.669 10.7262 126.965 10.8896C127.323 11.0686 127.727 11.1552 128.132 11.1396L128.261 11.1641C128.524 11.1557 128.777 11.0698 128.988 10.9131C129.089 10.8353 129.175 10.7339 129.229 10.6172C129.284 10.5006 129.308 10.3763 129.308 10.2441C129.308 10.1274 129.284 10.0182 129.237 9.90918C129.191 9.80803 129.113 9.71456 129.02 9.64453C128.794 9.48887 128.521 9.41123 128.249 9.42676C128.054 9.42676 127.86 9.45039 127.665 9.50488C127.541 9.5438 127.423 9.59793 127.322 9.66797L127.05 8.46875L128.381 6.81152H126.217V5.05176H130.561V6.30469Z" fill="white"/>
<path d="M39.6309 12.7354H37.7236V7.06836H34.3682V12.7354H32.4541V5.05957H39.6309V12.7354Z" fill="white"/>
<path d="M52.7939 9.66797L56.2969 5.05957H58.2119V12.7354H56.3281V8.12695L52.8252 12.7354H50.9102V5.05957H52.7939V9.66797Z" fill="white"/>
<path d="M80.4062 9.66797L83.9092 5.05957H85.8164V12.7354H83.9316V8.12695L80.4287 12.7354H78.5146V5.05957H80.4062V9.66797Z" fill="white"/>
<path d="M93.8027 7.06836H91.4053V12.7354H89.4902V7.06836H87.1006V5.05957H93.8027V7.06836Z" fill="white"/>
<path d="M109.971 7.06836H107.573V12.7354H105.658V7.06836H103.269V5.05957H109.971V7.06836Z" fill="white"/>
<path d="M113.824 4.88086C114.19 4.87308 114.556 4.93505 114.898 5.05957C115.186 5.16851 115.451 5.33196 115.661 5.5498C115.879 5.76774 116.043 6.02453 116.152 6.3125C116.261 6.60831 116.315 6.9201 116.315 7.23926C116.315 7.49611 116.284 7.75291 116.222 8.00977C116.152 8.25107 116.058 8.47736 115.934 8.69531C115.794 8.93644 115.638 9.16207 115.467 9.37988C115.272 9.60562 115.054 9.85451 114.812 10.127L114.05 10.9756H116.471V12.7354H111.489V11.3652L113.708 8.96777C113.864 8.79652 114.003 8.64796 114.12 8.51562C114.221 8.40666 114.307 8.28959 114.393 8.17285C114.462 8.06407 114.525 7.94759 114.563 7.83105C114.602 7.71429 114.626 7.58937 114.618 7.45703C114.618 7.34808 114.602 7.23886 114.556 7.1377C114.509 7.03666 114.447 6.95079 114.369 6.87305C114.182 6.70975 113.933 6.62417 113.677 6.63965L113.566 6.6377C113.435 6.64902 113.307 6.67702 113.179 6.71777C113.023 6.77226 112.882 6.84995 112.742 6.94336C112.618 7.03676 112.501 7.14596 112.399 7.2627C112.298 7.38712 112.205 7.51139 112.119 7.65137L111.427 6.49219C111.489 6.26644 111.59 6.04815 111.723 5.86133C111.863 5.66674 112.042 5.48776 112.244 5.34766C112.462 5.1998 112.703 5.08273 112.96 5.00488C113.24 4.91927 113.536 4.87309 113.824 4.88086Z" fill="white"/>
<path d="M145.857 6.82617H144.309L143.296 5.08301L142.276 6.82617H140.728L142.518 3.75195H144.066L145.857 6.82617Z" fill="white"/>
<path fill-rule="evenodd" clip-rule="evenodd" d="M52.5918 20.3559C52.8486 20.3559 53.0976 20.4031 53.3311 20.4965C53.5645 20.5899 53.7751 20.7296 53.9541 20.9086C54.1331 21.0876 54.2816 21.3059 54.3828 21.5395H54.3779C54.5386 21.911 54.584 22.3281 54.5068 22.7299C54.429 23.1346 54.2342 23.5005 53.9463 23.7963C53.7672 23.9753 53.5568 24.1082 53.3232 24.2094C53.0898 24.3105 52.8485 24.3568 52.5918 24.3568C52.3428 24.3568 52.0938 24.3183 51.8682 24.2172C51.6969 24.1471 51.5563 24.0223 51.4707 23.8588V25.8285H50.5215V20.4574H51.4473V20.8539C51.5329 20.6905 51.6813 20.5665 51.8525 20.4965C52.086 20.3953 52.335 20.3481 52.5918 20.3559ZM52.4912 21.3373C52.2733 21.3373 52.0549 21.3836 51.8604 21.477C51.6969 21.547 51.572 21.6797 51.4941 21.8354V22.8471C51.5642 23.0028 51.6969 23.1354 51.8604 23.2055C52.0549 23.3066 52.2733 23.3529 52.4912 23.3451C52.6467 23.3451 52.7946 23.3214 52.9424 23.267C53.0669 23.2203 53.1918 23.1504 53.2852 23.0648C53.3862 22.9715 53.4641 22.8622 53.5107 22.7455L53.5469 22.6527C53.5786 22.5511 53.5957 22.4462 53.5957 22.3412C53.5957 22.2011 53.573 22.0605 53.5107 21.9359C53.4563 21.8192 53.3785 21.71 53.2852 21.6166C53.184 21.5232 53.0669 21.4534 52.9424 21.4145C52.7946 21.36 52.6467 21.3374 52.4912 21.3373Z" fill="white"/>
<path fill-rule="evenodd" clip-rule="evenodd" d="M45.0332 23.2357H45.5703V25.2445H44.6523V24.2172H42.1533V25.2445H41.2344V23.2357H41.6318L41.6396 23.2436C41.7252 23.0958 41.8031 22.9479 41.873 22.7924C41.9509 22.6134 42.0207 22.4264 42.0752 22.2318C42.1374 22.014 42.1847 21.7963 42.2158 21.5707C42.2547 21.3216 42.2695 21.0639 42.2695 20.807V20.434H45.0332V23.2357ZM43.1182 21.4379C43.087 21.8037 43.0172 22.1619 42.916 22.5121C42.8382 22.7611 42.7446 23.0101 42.6279 23.2436H44.0918V21.4379H43.1182Z" fill="white"/>
<path d="M73.166 20.3559C73.4774 20.3481 73.7813 20.4179 74.0615 20.558C74.2873 20.6592 74.4741 20.8234 74.5986 21.0336L74.334 21.8119C74.2172 21.6796 74.0687 21.5704 73.9053 21.4926C73.7108 21.3993 73.4931 21.3442 73.2754 21.352C72.9719 21.3364 72.6758 21.4378 72.4346 21.6322C72.3335 21.7256 72.2479 21.835 72.2012 21.9594C72.1467 22.0839 72.123 22.2245 72.123 22.3568C72.1231 22.4968 72.1468 22.6289 72.2012 22.7533C72.2557 22.8779 72.3334 22.9949 72.4346 23.0883C72.6681 23.2829 72.964 23.3841 73.2754 23.3686C73.5009 23.3685 73.7187 23.3221 73.9131 23.2211C74.0766 23.1355 74.2251 23.0184 74.3496 22.8783L74.6299 23.6801H74.6221C74.482 23.8902 74.2872 24.0535 74.0615 24.1625C73.7813 24.3026 73.4696 24.3724 73.1582 24.3647C72.8936 24.3646 72.6368 24.3184 72.3955 24.2172C71.9051 24.0226 71.5159 23.649 71.3135 23.1664C71.0955 22.6449 71.0956 22.061 71.3135 21.5395C71.4147 21.2982 71.5701 21.0876 71.7568 20.9086C71.9436 20.7296 72.162 20.5899 72.4033 20.4965C72.6446 20.4031 72.9014 20.3481 73.166 20.3559Z" fill="white"/>
<path d="M104.864 20.3559C105.176 20.3559 105.48 20.4179 105.752 20.558C105.978 20.6592 106.165 20.8234 106.289 21.0336L106.024 21.8119C105.908 21.6796 105.759 21.5704 105.596 21.4926C105.401 21.3993 105.184 21.352 104.966 21.352C104.662 21.3364 104.366 21.4378 104.133 21.6322C104.032 21.7256 103.946 21.835 103.899 21.9594C103.845 22.0839 103.821 22.2245 103.821 22.3568C103.821 22.4968 103.845 22.6289 103.899 22.7533C103.954 22.8779 104.032 22.9949 104.133 23.0883C104.366 23.2829 104.662 23.3841 104.966 23.3686C105.191 23.3685 105.409 23.3221 105.604 23.2211C105.767 23.1355 105.915 23.0184 106.04 22.8783L106.32 23.6801C106.18 23.8902 105.985 24.0535 105.76 24.1625C105.48 24.3026 105.176 24.3724 104.864 24.3647C104.6 24.3646 104.343 24.3184 104.102 24.2172C103.619 24.0226 103.222 23.649 103.012 23.1664C102.794 22.6449 102.794 22.061 103.012 21.5395C103.113 21.2982 103.268 21.0876 103.455 20.9086C103.642 20.7296 103.86 20.5899 104.102 20.4965C104.343 20.4031 104.607 20.3481 104.864 20.3559Z" fill="white"/>
<path fill-rule="evenodd" clip-rule="evenodd" d="M56.6553 20.3402C56.8888 20.3402 57.1229 20.3717 57.3486 20.4418C57.5431 20.5041 57.7223 20.6055 57.8779 20.7377C58.0257 20.87 58.1497 21.0334 58.2197 21.2123C58.3131 21.4147 58.3604 21.6409 58.3604 21.8666V24.2641H57.4414V23.9213C57.3324 24.0769 57.1848 24.1862 57.0059 24.2484C56.6322 24.3886 56.2115 24.3964 55.8301 24.2719C55.6668 24.2174 55.519 24.1317 55.3867 24.0229C55.2622 23.9139 55.1609 23.7811 55.0908 23.6332C55.0208 23.4698 54.9815 23.2907 54.9893 23.1117C54.9893 22.9249 55.0286 22.7459 55.1143 22.5746C55.1999 22.4189 55.3169 22.2862 55.457 22.185C55.6048 22.0761 55.7606 21.9982 55.9395 21.9438C56.1184 21.8893 56.3133 21.8588 56.5 21.8588C56.7101 21.8588 56.9129 21.8815 57.1074 21.9438C57.224 21.9749 57.3324 22.0379 57.418 22.1234V22.0219C57.418 21.9207 57.4032 21.8194 57.3721 21.7338C57.3331 21.6404 57.278 21.5549 57.2002 21.4926C57.0135 21.3526 56.788 21.2828 56.5547 21.2904C56.329 21.2904 56.1028 21.3367 55.9004 21.4301C55.7214 21.5079 55.5581 21.625 55.4336 21.7729L55.1768 21.0023L55.1924 21.018C55.2624 20.909 55.3558 20.8077 55.457 20.7299C55.5658 20.6444 55.6823 20.5744 55.7988 20.5199C55.9312 20.4577 56.0718 20.4183 56.2119 20.3871C56.3597 20.356 56.5075 20.3403 56.6553 20.3402ZM56.6865 22.6293C56.4919 22.6137 56.2972 22.6599 56.126 22.7455C56.0715 22.7766 56.0252 22.816 55.9863 22.8705C55.9552 22.925 55.9395 22.987 55.9395 23.0492C55.9395 23.1115 55.9552 23.1744 55.9941 23.2289C56.0253 23.2831 56.0795 23.3296 56.1338 23.3529C56.305 23.4385 56.4919 23.4779 56.6787 23.4701C56.8343 23.4701 56.9977 23.4386 57.1455 23.3764C57.2544 23.3297 57.3556 23.2518 57.4102 23.1508V22.8861C57.3479 22.8005 57.2545 22.7298 57.1533 22.7065C57.0055 22.6521 56.8498 22.6293 56.6865 22.6293Z" fill="white"/>
<path fill-rule="evenodd" clip-rule="evenodd" d="M47.9521 20.3402C48.2167 20.3402 48.4814 20.3954 48.7227 20.5121C48.9484 20.6211 49.151 20.7687 49.3145 20.9555C49.4779 21.1423 49.6028 21.3606 49.6885 21.5941C49.7818 21.8353 49.8203 22.0923 49.8203 22.3568V22.6918H46.9639C46.9795 22.8082 47.0181 22.917 47.0879 23.0102C47.1502 23.1036 47.2367 23.1813 47.3379 23.2436C47.5608 23.3665 47.8214 23.4206 48.0752 23.4145C48.3068 23.4137 48.5457 23.3675 48.7617 23.2826C48.9561 23.2126 49.1274 23.0963 49.252 22.9408L49.54 23.6645C49.4 23.8822 49.2059 24.0535 48.9727 24.1547C48.6846 24.2948 48.365 24.3646 48.0459 24.3568C47.7657 24.3568 47.4932 24.3106 47.2285 24.2172C46.9872 24.1238 46.761 23.991 46.5742 23.8197C46.3876 23.6408 46.2398 23.4309 46.1387 23.1898C45.9363 22.6762 45.9286 22.1078 46.123 21.5863C46.2165 21.3528 46.3493 21.1345 46.5205 20.9477C46.6916 20.761 46.9015 20.6055 47.1348 20.5043C47.3916 20.3954 47.672 20.3325 47.9521 20.3402ZM47.9521 21.2904C47.7344 21.2905 47.5167 21.3447 47.3301 21.4535C47.2445 21.5002 47.1658 21.5622 47.1035 21.64C47.0413 21.7178 47.0029 21.8114 46.9873 21.9047H48.8545C48.8452 21.814 48.8071 21.7234 48.7617 21.6479C48.7073 21.5702 48.6451 21.5001 48.5596 21.4535C48.3805 21.3446 48.1701 21.2904 47.9521 21.2904Z" fill="white"/>
<path fill-rule="evenodd" clip-rule="evenodd" d="M88.5098 20.5043C89.0079 20.302 89.5604 20.3019 90.0586 20.5043C90.2998 20.6055 90.5183 20.7452 90.7051 20.9242C90.8918 21.111 91.0395 21.3294 91.1484 21.5629C91.2573 21.8119 91.3193 22.0845 91.3115 22.3647L91.3193 22.3568C91.3193 22.6292 91.2652 22.9018 91.1562 23.1586C91.0551 23.3999 90.8987 23.6095 90.7119 23.7885C90.5251 23.9675 90.3077 24.1082 90.0664 24.2016C89.8174 24.3027 89.5605 24.3568 89.2881 24.3568C89.0157 24.3568 88.7588 24.3027 88.5098 24.2016C88.2684 24.1004 88.0501 23.9597 87.8633 23.7885C87.5676 23.5083 87.3727 23.1424 87.2949 22.7455C87.2172 22.3487 87.2643 21.9364 87.4199 21.5629C87.5211 21.3216 87.6765 21.1033 87.8633 20.9242C88.0501 20.7452 88.2685 20.6055 88.5098 20.5043ZM89.2803 21.3451C89.1402 21.3451 88.9995 21.3678 88.8594 21.4223C88.7273 21.4689 88.6109 21.539 88.5176 21.6244C88.4164 21.71 88.3455 21.827 88.291 21.9438L88.2627 22.0443C88.2309 22.1462 88.2139 22.2517 88.2139 22.3568C88.2139 22.4967 88.2367 22.6367 88.2988 22.7611C88.3455 22.8857 88.4242 22.9948 88.5254 23.0805C88.6264 23.1737 88.7429 23.2437 88.8672 23.2826C88.9995 23.3371 89.1402 23.3607 89.2881 23.3607C89.4281 23.3607 89.5758 23.3371 89.708 23.2826C89.8326 23.2359 89.9496 23.1661 90.043 23.0805C90.1364 22.9871 90.2219 22.8857 90.2764 22.7611C90.3308 22.6367 90.3623 22.4968 90.3623 22.3568C90.3623 22.2167 90.3309 22.0761 90.2764 21.9438C90.2219 21.8193 90.1441 21.71 90.043 21.6244C89.9418 21.5311 89.8247 21.4612 89.7002 21.4223C89.568 21.3756 89.428 21.3452 89.2803 21.3451Z" fill="white"/>
<path fill-rule="evenodd" clip-rule="evenodd" d="M80.3438 20.3402C80.5772 20.3403 80.8105 20.3718 81.0361 20.4418C81.2307 20.5041 81.4097 20.6054 81.5654 20.7377C81.7133 20.87 81.8382 21.0333 81.9082 21.2123C81.9938 21.4147 82.0322 21.6331 82.0244 21.8588V24.2563H81.1064V23.9135C80.9975 24.0692 80.849 24.1861 80.6699 24.2406C80.2965 24.3805 79.8841 24.3885 79.5029 24.2641C79.3395 24.2096 79.1909 24.124 79.0586 24.015C78.9263 23.9139 78.8259 23.7732 78.7637 23.6254C78.6936 23.4619 78.6543 23.2829 78.6621 23.1039C78.6621 22.9172 78.7006 22.738 78.7861 22.5668C78.8718 22.4111 78.9888 22.2784 79.1289 22.1772C79.2689 22.0683 79.4324 21.9904 79.6113 21.9359C79.7903 21.8815 79.9851 21.851 80.1719 21.851C80.382 21.851 80.5847 21.8737 80.7793 21.9359C80.8961 21.9671 81.0052 22.03 81.0986 22.1156V22.0141C81.0986 21.9129 81.0829 21.8116 81.0518 21.726C81.0129 21.6327 80.9586 21.547 80.8809 21.4848C80.7018 21.3447 80.4679 21.2671 80.2344 21.2826C80.0088 21.2826 79.7833 21.329 79.5732 21.4223C79.3942 21.5001 79.23 21.6171 79.1055 21.765L78.8643 21.0023L78.8799 21.018C78.9499 20.9091 79.0434 20.8155 79.1445 20.7299C79.2535 20.6443 79.3706 20.5744 79.4873 20.5199C79.6195 20.4655 79.7594 20.4183 79.8994 20.3871C80.0473 20.356 80.1958 20.3402 80.3438 20.3402ZM80.375 22.6293C80.1805 22.6137 79.9856 22.66 79.8145 22.7455C79.76 22.7767 79.7128 22.816 79.6738 22.8705C79.6428 22.9249 79.627 22.9871 79.627 23.0492C79.627 23.1113 79.6429 23.1735 79.6738 23.2279C79.705 23.2824 79.76 23.3296 79.8145 23.3529C79.9701 23.4229 80.1414 23.4623 80.3203 23.4701C80.4915 23.4701 80.6628 23.4386 80.8262 23.3764C80.9351 23.3297 81.0364 23.2519 81.0986 23.1508V22.8861C81.0364 22.8005 80.943 22.7376 80.834 22.7065C80.6862 22.652 80.5305 22.6293 80.375 22.6293Z" fill="white"/>
<path d="M34.96 20.4574L36.5479 24.2563H35.4043L34.501 22.0219L33.5977 24.2484H32.4541L34.042 20.4496H34.9443L34.96 20.4574Z" fill="white"/>
<path d="M37.9805 22.7377L39.7168 20.4574H40.6582V24.2563H39.7246V21.975L37.9883 24.2563H37.0391V20.4574H37.9805V22.7377Z" fill="white"/>
<path d="M61.6221 22.8861L62.7041 20.4574H63.6221L64.2295 24.2563H63.2881L62.9531 22.2475L62.0576 24.2563H61.2949L60.3994 22.2475L60.0576 24.2563H59.0918L59.6914 20.4574H60.54L61.6221 22.8861Z" fill="white"/>
<path d="M65.9189 22.7377L67.6553 20.4574H68.6045V24.2563H67.6777V21.975L65.9424 24.2563H64.9922V20.4574H65.9189V22.7377Z" fill="white"/>
<path d="M78.3115 21.4535H77.1289V24.2563H76.1787V21.4535H74.9961V20.4574H78.3115V21.4535Z" fill="white"/>
<path d="M83.9238 21.8041H85.6055V20.4574H86.5557V24.2563H85.6055V22.8002H83.9238V24.2563H82.9746V20.4574H83.9238V21.8041Z" fill="white"/>
<path fill-rule="evenodd" clip-rule="evenodd" d="M93.499 20.4496C93.6858 20.4496 93.8649 20.4732 94.0439 20.5199C94.1996 20.5588 94.3481 20.6287 94.4805 20.7221C94.6048 20.8154 94.7054 20.9327 94.7754 21.0648C94.8454 21.2127 94.8848 21.3761 94.8848 21.5395C94.8847 21.6716 94.8611 21.8037 94.8145 21.9281C94.76 22.0371 94.6901 22.1306 94.6045 22.2162C94.7446 22.3018 94.8616 22.4189 94.9473 22.559C95.0484 22.7224 95.0947 22.9093 95.0869 23.0961C95.0869 23.2673 95.0562 23.4385 94.9707 23.5941C94.8929 23.7343 94.7837 23.8591 94.6592 23.9525C94.527 24.0536 94.3713 24.1314 94.208 24.1781C94.0368 24.2326 93.849 24.2563 93.6699 24.2563H92.0127V20.4574H93.499V20.4496ZM92.9541 23.3764H93.8262C93.8728 23.3764 93.9192 23.3761 93.9658 23.3529C94.0125 23.3374 94.0519 23.3138 94.0908 23.2826C94.153 23.2204 94.1846 23.1347 94.1846 23.0414C94.1845 22.9559 94.1453 22.878 94.0908 22.8158C94.0519 22.7847 94.0125 22.7533 93.9658 22.7377C93.9193 22.7222 93.8727 22.7143 93.8184 22.7143H92.9541V23.3764ZM92.9541 21.9594H93.624C93.6707 21.9594 93.7249 21.9592 93.7715 21.9359C93.8182 21.9204 93.8576 21.8977 93.8965 21.8588C93.9276 21.8277 93.9503 21.7961 93.9658 21.7572C93.9814 21.7183 93.9893 21.679 93.9893 21.64C93.9891 21.5546 93.9509 21.4689 93.8965 21.4145C93.8576 21.3833 93.8182 21.3529 93.7637 21.3373C93.7171 21.3218 93.6629 21.3139 93.6162 21.3139H92.9541V21.9594Z" fill="white"/>
<path d="M102.514 21.4535H101.33V24.2563H100.381V21.4535H99.1973V20.4574H102.514V21.4535Z" fill="white"/>
<path fill-rule="evenodd" clip-rule="evenodd" d="M98.582 24.2484H97.6328V23.1195H97.3135L96.543 24.2484H95.4453L96.3174 22.9789C96.0994 22.8777 95.9204 22.7145 95.7959 22.5121C95.6636 22.2942 95.6007 22.0453 95.6084 21.7963C95.6084 21.6017 95.64 21.407 95.7178 21.2279C95.7878 21.0645 95.897 20.9238 96.0293 20.7992C96.1616 20.6826 96.3172 20.589 96.4883 20.5346C96.6751 20.4723 96.8698 20.4418 97.0645 20.4418H98.582V24.2484ZM96.9941 21.3988C96.932 21.3988 96.8698 21.399 96.8154 21.4223C96.7609 21.4456 96.7059 21.4771 96.667 21.516C96.6283 21.5548 96.5975 21.6014 96.5742 21.6479C96.5509 21.6946 96.543 21.7496 96.543 21.8041C96.543 21.8585 96.5432 21.9128 96.5742 21.9594C96.5975 22.006 96.6282 22.0532 96.6748 22.0844C96.7604 22.1544 96.8775 22.1927 96.9941 22.1928H97.6328V21.391H96.9941V21.3988Z" fill="white"/>
<path fill-rule="evenodd" clip-rule="evenodd" d="M109.815 20.4496V24.2484H108.857V23.1195H108.547L107.775 24.2484H106.687L107.558 22.9789C107.348 22.8777 107.161 22.7144 107.036 22.5121C106.904 22.2943 106.842 22.0453 106.85 21.7963C106.85 21.6018 106.88 21.4069 106.958 21.2279C107.028 21.0645 107.137 20.9238 107.27 20.7992C107.402 20.6825 107.558 20.5891 107.729 20.5346C107.916 20.4724 108.111 20.4418 108.306 20.4418H109.831L109.815 20.4496ZM108.228 21.3988C108.165 21.3988 108.11 21.3989 108.048 21.4223C107.993 21.4456 107.939 21.4772 107.9 21.516C107.862 21.5549 107.83 21.6012 107.807 21.6479C107.783 21.6946 107.775 21.7496 107.775 21.8041C107.775 21.8584 107.776 21.9128 107.807 21.9594C107.83 22.0061 107.861 22.0532 107.908 22.0844C108.002 22.1544 108.111 22.1928 108.228 22.1928H108.857V21.391H108.228V21.3988Z" fill="white"/>
<path d="M0 22.5049C2.77126 22.5516 5.48855 23.2284 7.73047 24.832V24.8398L7.73828 24.8477C9.96462 23.2441 12.7825 22.5662 15.5537 22.5195V27.1357C12.5723 27.1357 9.83226 27.8213 7.73047 30.25V30.2422C5.99454 27.6811 2.24192 27.1279 0 27.1279V22.5049Z" fill="white"/>
<path d="M15.0713 8.22754C16.0599 10.8742 15.4991 13.9569 13.3662 16.0898L7.77734 21.6797C6.07255 19.9827 6.07255 17.2263 7.77734 15.5215L15.0713 8.22754Z" fill="white"/>
<path d="M13.3975 5.62793V5.62012C13.8567 6.08714 14.2385 6.60063 14.5498 7.1377L6.88965 14.7979C5.70651 15.981 5.15336 17.6467 5.39453 19.3047L3.88477 17.7949C2.18004 16.098 2.18017 13.3425 3.88477 11.6377L11.6455 3.87598L13.3975 5.62793Z" fill="white"/>
<path d="M10.8438 3.06641L3.0752 10.8359L2.89648 11.0225C1.81448 12.1745 1.30052 13.7313 1.4873 15.2959C-0.692254 12.3846 -0.45904 8.23557 2.1875 5.58887L7.77734 0L10.8438 3.06641Z" fill="white"/>
</svg>
