<svg width="209" height="30" viewBox="0 0 209 30" fill="none" xmlns="http://www.w3.org/2000/svg">
<path d="M107.574 23.1256H106.12V17.8828H107.47V21.2777H107.522L110.117 17.8828H111.571V23.1256H110.221V19.7308H110.169L107.574 23.1256Z" fill="white"/>
<path d="M100.669 23.1256H99.2158V17.8828H100.565V21.2777H100.617L103.213 17.8828H104.666V23.1256H103.317V19.7308H103.265L100.669 23.1256Z" fill="white"/>
<path d="M98.3025 24.5272H96.9528V23.1256H92.281V17.8828H93.6306V21.8798H96.0704V17.8828H97.42V21.8798H98.3025V24.5272Z" fill="white"/>
<path d="M87.4663 23.2502C86.8088 23.2502 86.2862 23.1014 85.8986 22.8038C85.518 22.5062 85.3276 22.1082 85.3276 21.6099C85.3276 21.1115 85.5284 20.717 85.9298 20.4263C86.3312 20.1356 86.8815 19.9903 87.5805 19.9903C87.9266 19.9903 88.2588 20.0249 88.5771 20.0941C88.9024 20.1633 89.1689 20.2602 89.3765 20.3848V19.793C89.3765 19.4954 89.2658 19.267 89.0443 19.1078C88.8298 18.9486 88.5218 18.8691 88.1203 18.8691C87.7604 18.8691 87.4698 18.9313 87.2483 19.0559C87.0337 19.1805 86.9264 19.3432 86.9264 19.5439H85.5249C85.5249 19.177 85.6322 18.8587 85.8467 18.5887C86.0613 18.3119 86.3658 18.1008 86.7603 17.9555C87.1618 17.8032 87.6255 17.7271 88.1515 17.7271C88.9682 17.7271 89.6015 17.907 90.0514 18.2669C90.5012 18.6268 90.7262 19.1286 90.7262 19.7723V21.4853C90.7262 21.6721 90.7504 21.8036 90.7989 21.8798C90.8473 21.949 90.9373 21.9836 91.0688 21.9836C91.1726 21.9836 91.2487 21.9663 91.2972 21.9317V23.0529C91.1449 23.136 90.92 23.1775 90.6224 23.1775C90.3248 23.1775 90.086 23.1325 89.906 23.0425C89.733 22.9457 89.605 22.7934 89.5219 22.5857H89.47C89.2485 22.7934 88.9578 22.956 88.5979 23.0737C88.238 23.1914 87.8608 23.2502 87.4663 23.2502ZM87.8504 22.1601C88.5356 22.1601 89.0443 22.0217 89.3765 21.7448V21.2776C89.2174 21.1877 88.9959 21.115 88.7121 21.0596C88.4353 21.0042 88.148 20.9766 87.8504 20.9766C87.1029 20.9766 86.7292 21.1773 86.7292 21.5787C86.7292 21.9663 87.1029 22.1601 87.8504 22.1601Z" fill="white"/>
<path d="M81.8941 23.2813C80.9944 23.2813 80.3126 23.1256 79.8489 22.8141C79.3852 22.4958 79.1533 22.032 79.1533 21.423H80.5549C80.5549 21.6375 80.6656 21.8036 80.8871 21.9213C81.1155 22.032 81.4373 22.0874 81.8526 22.0874C82.2471 22.0874 82.5516 22.0355 82.7662 21.9317C82.9877 21.8279 83.0984 21.686 83.0984 21.506C83.0984 21.3261 83.0154 21.198 82.8493 21.1219C82.6831 21.0389 82.4098 20.9973 82.0291 20.9973H81.1155V19.9591H82.0291C82.6382 19.9591 82.9427 19.7896 82.9427 19.4504C82.9427 19.2774 82.8458 19.1459 82.652 19.0559C82.4651 18.9659 82.1952 18.921 81.8422 18.921C81.4823 18.921 81.1882 18.9763 80.9598 19.0871C80.7314 19.1909 80.6172 19.3293 80.6172 19.5023H79.2156C79.2156 18.9486 79.4509 18.5161 79.9216 18.2046C80.3991 17.8862 81.0567 17.7271 81.8941 17.7271C82.6693 17.7271 83.2714 17.8586 83.7006 18.1216C84.1297 18.3846 84.3442 18.7549 84.3442 19.2324C84.3442 19.5023 84.275 19.7377 84.1366 19.9384C84.0051 20.1322 83.8113 20.2741 83.5552 20.364V20.4159C83.8597 20.4921 84.0916 20.6374 84.2508 20.852C84.4169 21.0665 84.5 21.333 84.5 21.6514C84.5 22.1705 84.2716 22.5719 83.8148 22.8557C83.3649 23.1394 82.7247 23.2813 81.8941 23.2813Z" fill="white"/>
<path d="M74.0658 23.1256H72.6123V17.8828H73.9619V21.2777H74.0139L76.6093 17.8828H78.0628V23.1256H76.7131V19.7308H76.6612L74.0658 23.1256Z" fill="white"/>
<path d="M69.8052 19.8035V17.8828H71.1548V23.1256H69.8052V21.0493H67.2097V23.1256H65.8601V17.8828H67.2097V19.8035H69.8052Z" fill="white"/>
<path d="M61.0454 23.2502C60.3879 23.2502 59.8653 23.1014 59.4777 22.8038C59.0971 22.5062 58.9067 22.1082 58.9067 21.6099C58.9067 21.1115 59.1075 20.717 59.5089 20.4263C59.9103 20.1356 60.4606 19.9903 61.1596 19.9903C61.5057 19.9903 61.8379 20.0249 62.1563 20.0941C62.4815 20.1633 62.748 20.2602 62.9557 20.3848V19.793C62.9557 19.4954 62.8449 19.267 62.6234 19.1078C62.4089 18.9486 62.1009 18.8691 61.6995 18.8691C61.3395 18.8691 61.0489 18.9313 60.8274 19.0559C60.6128 19.1805 60.5055 19.3432 60.5055 19.5439H59.104C59.104 19.177 59.2113 18.8587 59.4258 18.5887C59.6404 18.3119 59.9449 18.1008 60.3394 17.9555C60.7409 17.8032 61.2046 17.7271 61.7306 17.7271C62.5473 17.7271 63.1806 17.907 63.6305 18.2669C64.0804 18.6268 64.3053 19.1286 64.3053 19.7723V21.4853C64.3053 21.6721 64.3295 21.8036 64.378 21.8798C64.4264 21.949 64.5164 21.9836 64.6479 21.9836C64.7517 21.9836 64.8278 21.9663 64.8763 21.9317V23.0529C64.724 23.136 64.4991 23.1775 64.2015 23.1775C63.9039 23.1775 63.6651 23.1325 63.4851 23.0425C63.3121 22.9457 63.1841 22.7934 63.101 22.5857H63.0491C62.8276 22.7934 62.5369 22.956 62.177 23.0737C61.8171 23.1914 61.4399 23.2502 61.0454 23.2502ZM61.4295 22.1601C62.1147 22.1601 62.6234 22.0217 62.9557 21.7448V21.2776C62.7965 21.1877 62.575 21.115 62.2912 21.0596C62.0144 21.0042 61.7271 20.9766 61.4295 20.9766C60.682 20.9766 60.3083 21.1773 60.3083 21.5787C60.3083 21.9663 60.682 22.1601 61.4295 22.1601Z" fill="white"/>
<path d="M55.5808 23.1256H54.2312V17.8828H58.5397V19.1286H55.5808V23.1256Z" fill="white"/>
<path d="M47.3269 25.202V17.9347H48.6246V18.5576H48.6765C48.8773 18.2946 49.1333 18.1008 49.4448 17.9762C49.7632 17.8447 50.1196 17.779 50.5141 17.779C51.0194 17.779 51.4658 17.8967 51.8534 18.132C52.241 18.3604 52.542 18.6857 52.7566 19.1079C52.9781 19.5301 53.0888 20.0111 53.0888 20.5509C53.0888 21.0977 52.9815 21.5822 52.767 22.0044C52.5524 22.4266 52.2479 22.7553 51.8534 22.9907C51.4658 23.2191 51.0125 23.3333 50.4934 23.3333C50.1196 23.3333 49.7805 23.2744 49.4759 23.1568C49.1783 23.046 48.9292 22.8799 48.7285 22.6585H48.6765V25.202H47.3269ZM50.1819 22.0875C50.6249 22.0875 50.9848 21.9456 51.2616 21.6618C51.5454 21.378 51.6873 21.0077 51.6873 20.5509C51.6873 20.0941 51.5454 19.7273 51.2616 19.4505C50.9848 19.1667 50.6249 19.0248 50.1819 19.0248C49.7389 19.0248 49.3756 19.1667 49.0918 19.4505C48.815 19.7273 48.6765 20.0941 48.6765 20.5509C48.6765 21.0077 48.815 21.378 49.0918 21.6618C49.3756 21.9456 49.7389 22.0875 50.1819 22.0875Z" fill="white"/>
<path d="M43.3014 23.2813C42.727 23.2813 42.2217 23.1671 41.7857 22.9387C41.3496 22.7103 41.0105 22.3885 40.7683 21.9732C40.5329 21.551 40.4153 21.0631 40.4153 20.5094C40.4153 19.9557 40.5329 19.4712 40.7683 19.0559C41.0105 18.6337 41.3496 18.3084 41.7857 18.08C42.2217 17.8447 42.727 17.7271 43.3014 17.7271C43.8759 17.7271 44.3811 17.8447 44.8172 18.08C45.2532 18.3084 45.5889 18.6337 45.8242 19.0559C46.0665 19.4712 46.1876 19.9557 46.1876 20.5094C46.1876 21.0631 46.0665 21.551 45.8242 21.9732C45.5889 22.3885 45.2532 22.7103 44.8172 22.9387C44.3811 23.1671 43.8759 23.2813 43.3014 23.2813ZM43.3014 22.0355C43.7582 22.0355 44.1181 21.9005 44.3811 21.6306C44.6511 21.3538 44.786 20.98 44.786 20.5094C44.786 20.0318 44.6545 19.6581 44.3915 19.3881C44.1285 19.1113 43.7652 18.9729 43.3014 18.9729C42.8377 18.9729 42.4743 19.1113 42.2113 19.3881C41.9483 19.6581 41.8168 20.0318 41.8168 20.5094C41.8168 20.98 41.9483 21.3538 42.2113 21.6306C42.4813 21.9005 42.8446 22.0355 43.3014 22.0355Z" fill="white"/>
<path d="M204.68 13.1256H203.227V7.88278H204.576V11.2776H204.628L207.224 7.88278H208.677V13.1256H207.327V9.73075H207.276L204.68 13.1256ZM205.947 7.10415C205.296 7.10415 204.794 6.96226 204.441 6.67849C204.095 6.3878 203.922 5.97599 203.922 5.44305H205.012C205.012 5.65069 205.102 5.82372 205.282 5.96215C205.462 6.10057 205.684 6.16978 205.947 6.16978C206.21 6.16978 206.431 6.10057 206.611 5.96215C206.791 5.82372 206.881 5.65069 206.881 5.44305H207.971C207.971 5.97599 207.795 6.3878 207.442 6.67849C207.096 6.96226 206.597 7.10415 205.947 7.10415Z" fill="white"/>
<path d="M199.201 13.2813C198.627 13.2813 198.122 13.1671 197.685 12.9387C197.249 12.7103 196.91 12.3885 196.668 11.9732C196.433 11.551 196.315 11.0631 196.315 10.5094C196.315 9.95568 196.433 9.4712 196.668 9.05593C196.91 8.63373 197.249 8.30843 197.685 8.08003C198.122 7.84471 198.627 7.72705 199.201 7.72705C199.776 7.72705 200.281 7.84471 200.717 8.08003C201.153 8.30843 201.489 8.63373 201.724 9.05593C201.966 9.4712 202.087 9.95568 202.087 10.5094C202.087 11.0631 201.966 11.551 201.724 11.9732C201.489 12.3885 201.153 12.7103 200.717 12.9387C200.281 13.1671 199.776 13.2813 199.201 13.2813ZM199.201 12.0355C199.658 12.0355 200.018 11.9005 200.281 11.6306C200.551 11.3538 200.686 10.98 200.686 10.5094C200.686 10.0318 200.554 9.65807 200.291 9.38814C200.028 9.1113 199.665 8.97287 199.201 8.97287C198.737 8.97287 198.374 9.1113 198.111 9.38814C197.848 9.65807 197.717 10.0318 197.717 10.5094C197.717 10.98 197.848 11.3538 198.111 11.6306C198.381 11.9005 198.744 12.0355 199.201 12.0355Z" fill="white"/>
<path d="M193.819 9.80345V7.88281H195.169V13.1256H193.819V11.0493H191.224V13.1256H189.874V7.88281H191.224V9.80345H193.819Z" fill="white"/>
<path d="M186.413 9.28436C187.139 9.28436 187.697 9.45393 188.084 9.79307C188.479 10.1253 188.676 10.5959 188.676 11.205C188.676 11.8141 188.479 12.2882 188.084 12.6273C187.697 12.9595 187.139 13.1256 186.413 13.1256H184.004V7.88281H185.354V9.28436H186.413ZM186.215 11.9836C186.921 11.9836 187.274 11.7241 187.274 11.205C187.274 10.6859 186.921 10.4264 186.215 10.4264H185.354V11.9836H186.215Z" fill="white"/>
<path d="M177.375 13.2814C177.133 13.2814 176.922 13.2537 176.742 13.1983V11.9525C176.825 11.9733 176.918 11.9836 177.022 11.9836C177.216 11.9836 177.361 11.9352 177.458 11.8383C177.562 11.7345 177.621 11.5476 177.635 11.2777L177.853 7.88281H182.556V13.1256H181.206V9.12863H179.13L178.963 11.6099C178.929 12.1567 178.777 12.5719 178.507 12.8557C178.244 13.1395 177.866 13.2814 177.375 13.2814Z" fill="white"/>
<path d="M176.325 10.4886C176.325 10.6547 176.311 10.807 176.284 10.9454H172.006C172.076 11.3192 172.235 11.6029 172.484 11.7967C172.733 11.9905 173.062 12.0874 173.47 12.0874C173.795 12.0874 174.069 12.0355 174.29 11.9317C174.512 11.8279 174.668 11.6791 174.757 11.4853H176.201C176.062 12.039 175.751 12.4785 175.266 12.8038C174.789 13.1221 174.197 13.2813 173.491 13.2813C172.903 13.2813 172.387 13.1671 171.944 12.9387C171.501 12.7103 171.158 12.3885 170.916 11.9732C170.681 11.551 170.563 11.0631 170.563 10.5094C170.563 9.9626 170.684 9.47812 170.927 9.05593C171.169 8.63373 171.508 8.30843 171.944 8.08003C172.387 7.84471 172.896 7.72705 173.47 7.72705C174.038 7.72705 174.536 7.84471 174.965 8.08003C175.394 8.30843 175.726 8.63373 175.962 9.05593C176.204 9.4712 176.325 9.94876 176.325 10.4886ZM173.47 8.92096C173.089 8.92096 172.775 9.01094 172.525 9.19089C172.283 9.36392 172.117 9.62 172.027 9.95914H174.882C174.827 9.63385 174.674 9.38122 174.425 9.20127C174.176 9.0144 173.858 8.92096 173.47 8.92096Z" fill="white"/>
<path d="M168.173 13.1256H166.823V9.12863H164.85V7.88281H170.145V9.12863H168.173V13.1256Z" fill="white"/>
<path d="M160.758 13.2502C160.1 13.2502 159.577 13.1014 159.19 12.8038C158.809 12.5062 158.619 12.1082 158.619 11.6099C158.619 11.1115 158.82 10.717 159.221 10.4263C159.622 10.1356 160.173 9.99029 160.872 9.99029C161.218 9.99029 161.55 10.0249 161.868 10.0941C162.194 10.1633 162.46 10.2602 162.668 10.3848V9.79304C162.668 9.49542 162.557 9.26702 162.336 9.10783C162.121 8.94865 161.813 8.86905 161.412 8.86905C161.052 8.86905 160.761 8.93134 160.54 9.05593C160.325 9.18051 160.218 9.34316 160.218 9.54387H158.816C158.816 9.17705 158.923 8.85867 159.138 8.58874C159.353 8.31189 159.657 8.1008 160.052 7.95545C160.453 7.80318 160.917 7.72705 161.443 7.72705C162.259 7.72705 162.893 7.907 163.343 8.26691C163.793 8.62681 164.017 9.1286 164.017 9.77227V11.4853C164.017 11.6721 164.042 11.8037 164.09 11.8798C164.139 11.949 164.229 11.9836 164.36 11.9836C164.464 11.9836 164.54 11.9663 164.588 11.9317V13.0529C164.436 13.136 164.211 13.1775 163.914 13.1775C163.616 13.1775 163.377 13.1325 163.197 13.0425C163.024 12.9457 162.896 12.7934 162.813 12.5857H162.761C162.54 12.7934 162.249 12.956 161.889 13.0737C161.529 13.1914 161.152 13.2502 160.758 13.2502ZM161.142 12.1601C161.827 12.1601 162.336 12.0217 162.668 11.7448V11.2776C162.509 11.1877 162.287 11.115 162.003 11.0596C161.727 11.0042 161.439 10.9766 161.142 10.9766C160.394 10.9766 160.02 11.1773 160.02 11.5787C160.02 11.9663 160.394 12.1601 161.142 12.1601Z" fill="white"/>
<path d="M156.8 10.4367C157.111 10.5198 157.353 10.6721 157.526 10.8935C157.699 11.115 157.786 11.3849 157.786 11.7033C157.786 12.6515 157.163 13.1256 155.917 13.1256H152.595V7.88281H155.855C156.381 7.88281 156.786 8.00047 157.07 8.23579C157.353 8.47112 157.495 8.79641 157.495 9.21169C157.495 9.75846 157.263 10.1495 156.8 10.3848V10.4367ZM153.945 9.02481V9.95918H155.419C155.654 9.95918 155.824 9.92111 155.928 9.84498C156.038 9.76192 156.094 9.63734 156.094 9.47123C156.094 9.31204 156.042 9.19784 155.938 9.12863C155.834 9.05942 155.661 9.02481 155.419 9.02481H153.945ZM155.689 11.9836C155.924 11.9836 156.097 11.9456 156.208 11.8694C156.326 11.7864 156.384 11.6583 156.384 11.4853C156.384 11.3192 156.326 11.1981 156.208 11.1219C156.097 11.0389 155.924 10.9974 155.689 10.9974H153.945V11.9836H155.689Z" fill="white"/>
<path d="M148.569 13.2813C147.995 13.2813 147.49 13.1671 147.054 12.9387C146.618 12.7103 146.279 12.3885 146.036 11.9732C145.801 11.551 145.683 11.0631 145.683 10.5094C145.683 9.95568 145.801 9.4712 146.036 9.05593C146.279 8.63373 146.618 8.30843 147.054 8.08003C147.49 7.84471 147.995 7.72705 148.569 7.72705C149.144 7.72705 149.649 7.84471 150.085 8.08003C150.521 8.30843 150.857 8.63373 151.092 9.05593C151.335 9.4712 151.456 9.95568 151.456 10.5094C151.456 11.0631 151.335 11.551 151.092 11.9732C150.857 12.3885 150.521 12.7103 150.085 12.9387C149.649 13.1671 149.144 13.2813 148.569 13.2813ZM148.569 12.0355C149.026 12.0355 149.386 11.9005 149.649 11.6306C149.919 11.3538 150.054 10.98 150.054 10.5094C150.054 10.0318 149.923 9.65807 149.66 9.38814C149.397 9.1113 149.033 8.97287 148.569 8.97287C148.106 8.97287 147.742 9.1113 147.479 9.38814C147.216 9.65807 147.085 10.0318 147.085 10.5094C147.085 10.98 147.216 11.3538 147.479 11.6306C147.749 11.9005 148.113 12.0355 148.569 12.0355Z" fill="white"/>
<path d="M142.198 13.2813C141.298 13.2813 140.616 13.1256 140.153 12.8141C139.689 12.4958 139.457 12.0321 139.457 11.423H140.859C140.859 11.6375 140.969 11.8036 141.191 11.9213C141.419 12.032 141.741 12.0874 142.156 12.0874C142.551 12.0874 142.855 12.0355 143.07 11.9317C143.292 11.8279 143.402 11.686 143.402 11.506C143.402 11.3261 143.319 11.198 143.153 11.1219C142.987 11.0389 142.714 10.9973 142.333 10.9973H141.419V9.95914H142.333C142.942 9.95914 143.247 9.78957 143.247 9.45043C143.247 9.2774 143.15 9.1459 142.956 9.05593C142.769 8.96595 142.499 8.92096 142.146 8.92096C141.786 8.92096 141.492 8.97633 141.264 9.08707C141.035 9.19089 140.921 9.32931 140.921 9.50234H139.519C139.519 8.94865 139.755 8.51607 140.225 8.20462C140.703 7.88624 141.36 7.72705 142.198 7.72705C142.973 7.72705 143.575 7.85855 144.004 8.12156C144.434 8.38457 144.648 8.75485 144.648 9.23242C144.648 9.50234 144.579 9.73767 144.44 9.93838C144.309 10.1322 144.115 10.2741 143.859 10.364V10.4159C144.164 10.4921 144.395 10.6374 144.555 10.852C144.721 11.0665 144.804 11.333 144.804 11.6514C144.804 12.1705 144.575 12.5719 144.119 12.8557C143.669 13.1394 143.028 13.2813 142.198 13.2813Z" fill="white"/>
<path d="M135.107 13.2502C134.45 13.2502 133.927 13.1014 133.54 12.8038C133.159 12.5062 132.969 12.1082 132.969 11.6099C132.969 11.1115 133.169 10.717 133.571 10.4263C133.972 10.1356 134.522 9.99029 135.221 9.99029C135.567 9.99029 135.9 10.0249 136.218 10.0941C136.543 10.1633 136.81 10.2602 137.017 10.3848V9.79304C137.017 9.49542 136.907 9.26702 136.685 9.10783C136.471 8.94865 136.163 8.86905 135.761 8.86905C135.401 8.86905 135.111 8.93134 134.889 9.05593C134.675 9.18051 134.567 9.34316 134.567 9.54387H133.166C133.166 9.17705 133.273 8.85867 133.488 8.58874C133.702 8.31189 134.007 8.1008 134.401 7.95545C134.803 7.80318 135.266 7.72705 135.792 7.72705C136.609 7.72705 137.242 7.907 137.692 8.26691C138.142 8.62681 138.367 9.1286 138.367 9.77227V11.4853C138.367 11.6721 138.391 11.8037 138.44 11.8798C138.488 11.949 138.578 11.9836 138.71 11.9836C138.813 11.9836 138.89 11.9663 138.938 11.9317V13.0529C138.786 13.136 138.561 13.1775 138.263 13.1775C137.966 13.1775 137.727 13.1325 137.547 13.0425C137.374 12.9457 137.246 12.7934 137.163 12.5857H137.111C136.889 12.7934 136.599 12.956 136.239 13.0737C135.879 13.1914 135.502 13.2502 135.107 13.2502ZM135.491 12.1601C136.176 12.1601 136.685 12.0217 137.017 11.7448V11.2776C136.858 11.1877 136.637 11.115 136.353 11.0596C136.076 11.0042 135.789 10.9766 135.491 10.9766C134.744 10.9766 134.37 11.1773 134.37 11.5787C134.37 11.9663 134.744 12.1601 135.491 12.1601Z" fill="white"/>
<path d="M126.427 15.202V7.93472H127.725V8.55763H127.777C127.978 8.29462 128.234 8.10083 128.545 7.97625C128.864 7.84474 129.22 7.77899 129.615 7.77899C130.12 7.77899 130.566 7.89665 130.954 8.13197C131.342 8.36037 131.643 8.68567 131.857 9.10787C132.079 9.53006 132.189 10.0111 132.189 10.5509C132.189 11.0977 132.082 11.5822 131.868 12.0044C131.653 12.4266 131.348 12.7553 130.954 12.9907C130.566 13.2191 130.113 13.3333 129.594 13.3333C129.22 13.3333 128.881 13.2744 128.577 13.1568C128.279 13.046 128.03 12.8799 127.829 12.6585H127.777V15.202H126.427ZM129.282 12.0875C129.725 12.0875 130.085 11.9456 130.362 11.6618C130.646 11.378 130.788 11.0077 130.788 10.5509C130.788 10.0941 130.646 9.72732 130.362 9.45047C130.085 9.1667 129.725 9.02481 129.282 9.02481C128.84 9.02481 128.476 9.1667 128.192 9.45047C127.916 9.72732 127.777 10.0941 127.777 10.5509C127.777 11.0077 127.916 11.378 128.192 11.6618C128.476 11.9456 128.84 12.0875 129.282 12.0875Z" fill="white"/>
<path d="M122.839 8.29807C123.317 8.29807 123.742 8.40535 124.116 8.6199C124.49 8.82754 124.777 9.11823 124.978 9.49198C125.185 9.8588 125.289 10.2775 125.289 10.7482C125.289 11.2534 125.171 11.6998 124.936 12.0874C124.708 12.4681 124.382 12.7623 123.96 12.9699C123.538 13.1775 123.043 13.2813 122.476 13.2813C121.527 13.2813 120.808 13.0045 120.316 12.4508C119.825 11.8971 119.579 11.0839 119.579 10.0111C119.579 9.23589 119.673 8.6026 119.859 8.1112C120.053 7.61979 120.351 7.24258 120.752 6.97958C121.161 6.71657 121.694 6.547 122.351 6.47087C122.815 6.4155 123.144 6.34282 123.337 6.25285C123.531 6.16287 123.628 6.03137 123.628 5.85834H125.081C125.081 6.239 124.998 6.55046 124.832 6.7927C124.673 7.02802 124.41 7.2149 124.043 7.35332C123.676 7.49175 123.182 7.59556 122.559 7.66478C122.081 7.72015 121.714 7.84819 121.458 8.0489C121.209 8.2427 121.053 8.52993 120.991 8.9106C121.206 8.7168 121.472 8.568 121.79 8.46418C122.116 8.35344 122.465 8.29807 122.839 8.29807ZM122.434 12.0874C122.884 12.0874 123.237 11.9698 123.493 11.7345C123.756 11.4922 123.888 11.1704 123.888 10.7689C123.888 10.3744 123.756 10.0561 123.493 9.81382C123.23 9.56465 122.877 9.44007 122.434 9.44007C121.991 9.44007 121.638 9.56465 121.375 9.81382C121.112 10.0561 120.981 10.3744 120.981 10.7689C120.981 11.1704 121.109 11.4922 121.365 11.7345C121.628 11.9698 121.984 12.0874 122.434 12.0874Z" fill="white"/>
<path d="M115.761 13.2813C115.187 13.2813 114.682 13.1671 114.246 12.9387C113.809 12.7103 113.47 12.3885 113.228 11.9732C112.993 11.551 112.875 11.0631 112.875 10.5094C112.875 9.95568 112.993 9.4712 113.228 9.05593C113.47 8.63373 113.809 8.30843 114.246 8.08003C114.682 7.84471 115.187 7.72705 115.761 7.72705C116.336 7.72705 116.841 7.84471 117.277 8.08003C117.713 8.30843 118.049 8.63373 118.284 9.05593C118.526 9.4712 118.647 9.95568 118.647 10.5094C118.647 11.0631 118.526 11.551 118.284 11.9732C118.049 12.3885 117.713 12.7103 117.277 12.9387C116.841 13.1671 116.336 13.2813 115.761 13.2813ZM115.761 12.0355C116.218 12.0355 116.578 11.9005 116.841 11.6306C117.111 11.3538 117.246 10.98 117.246 10.5094C117.246 10.0318 117.114 9.65807 116.851 9.38814C116.588 9.1113 116.225 8.97287 115.761 8.97287C115.298 8.97287 114.934 9.1113 114.671 9.38814C114.408 9.65807 114.277 10.0318 114.277 10.5094C114.277 10.98 114.408 11.3538 114.671 11.6306C114.941 11.9005 115.304 12.0355 115.761 12.0355Z" fill="white"/>
<path d="M107.256 8.29807C107.734 8.29807 108.159 8.40535 108.533 8.6199C108.907 8.82754 109.194 9.11823 109.395 9.49198C109.603 9.8588 109.706 10.2775 109.706 10.7482C109.706 11.2534 109.589 11.6998 109.353 12.0874C109.125 12.4681 108.8 12.7623 108.377 12.9699C107.955 13.1775 107.46 13.2813 106.893 13.2813C105.945 13.2813 105.225 13.0045 104.733 12.4508C104.242 11.8971 103.996 11.0839 103.996 10.0111C103.996 9.23589 104.09 8.6026 104.277 8.1112C104.47 7.61979 104.768 7.24258 105.169 6.97958C105.578 6.71657 106.111 6.547 106.768 6.47087C107.232 6.4155 107.561 6.34282 107.755 6.25285C107.948 6.16287 108.045 6.03137 108.045 5.85834H109.499C109.499 6.239 109.416 6.55046 109.25 6.7927C109.09 7.02802 108.827 7.2149 108.461 7.35332C108.094 7.49175 107.599 7.59556 106.976 7.66478C106.498 7.72015 106.132 7.84819 105.875 8.0489C105.626 8.2427 105.471 8.52993 105.408 8.9106C105.623 8.7168 105.889 8.568 106.208 8.46418C106.533 8.35344 106.882 8.29807 107.256 8.29807ZM106.851 12.0874C107.301 12.0874 107.654 11.9698 107.91 11.7345C108.173 11.4922 108.305 11.1704 108.305 10.7689C108.305 10.3744 108.173 10.0561 107.91 9.81382C107.647 9.56465 107.294 9.44007 106.851 9.44007C106.408 9.44007 106.055 9.56465 105.792 9.81382C105.529 10.0561 105.398 10.3744 105.398 10.7689C105.398 11.1704 105.526 11.4922 105.782 11.7345C106.045 11.9698 106.401 12.0874 106.851 12.0874Z" fill="white"/>
<path d="M100.178 13.2813C99.6039 13.2813 99.0987 13.1671 98.6626 12.9387C98.2266 12.7103 97.8875 12.3885 97.6452 11.9732C97.4099 11.551 97.2922 11.0631 97.2922 10.5094C97.2922 9.95568 97.4099 9.4712 97.6452 9.05593C97.8875 8.63373 98.2266 8.30843 98.6626 8.08003C99.0987 7.84471 99.6039 7.72705 100.178 7.72705C100.753 7.72705 101.258 7.84471 101.694 8.08003C102.13 8.30843 102.466 8.63373 102.701 9.05593C102.943 9.4712 103.065 9.95568 103.065 10.5094C103.065 11.0631 102.943 11.551 102.701 11.9732C102.466 12.3885 102.13 12.7103 101.694 12.9387C101.258 13.1671 100.753 13.2813 100.178 13.2813ZM100.178 12.0355C100.635 12.0355 100.995 11.9005 101.258 11.6306C101.528 11.3538 101.663 10.98 101.663 10.5094C101.663 10.0318 101.531 9.65807 101.268 9.38814C101.005 9.1113 100.642 8.97287 100.178 8.97287C99.7147 8.97287 99.3513 9.1113 99.0883 9.38814C98.8253 9.65807 98.6938 10.0318 98.6938 10.5094C98.6938 10.98 98.8253 11.3538 99.0883 11.6306C99.3582 11.9005 99.7216 12.0355 100.178 12.0355Z" fill="white"/>
<path d="M93.6007 7.88281V13.1256H92.251V11.5165H91.0571L90.0397 13.1256H88.4617L89.6556 11.34C89.3718 11.2223 89.1365 11.0112 88.9496 10.7067C88.7627 10.3952 88.6693 10.0595 88.6693 9.69963C88.6693 9.11825 88.8596 8.67183 89.2403 8.36038C89.621 8.042 90.1608 7.88281 90.8599 7.88281H93.6007ZM92.251 10.3225V9.07672H91.026C90.6868 9.07672 90.4411 9.12517 90.2889 9.22207C90.1435 9.31897 90.0709 9.47815 90.0709 9.69963C90.0709 9.92111 90.1435 10.0803 90.2889 10.1772C90.4411 10.2741 90.6868 10.3225 91.026 10.3225H92.251Z" fill="white"/>
<path d="M83.3222 13.1256H81.8688V7.88281H83.2184V11.2777H83.2703L85.8658 7.88281H87.3192V13.1256H85.9696V9.73078H85.9177L83.3222 13.1256Z" fill="white"/>
<path d="M79.0617 9.80345V7.88281H80.4113V13.1256H79.0617V11.0493H76.4662V13.1256H75.1166V7.88281H76.4662V9.80345H79.0617Z" fill="white"/>
<path d="M74.0277 10.4886C74.0277 10.6547 74.0138 10.807 73.9861 10.9454H69.7088C69.778 11.3192 69.9372 11.6029 70.1864 11.7967C70.4356 11.9905 70.7643 12.0874 71.1727 12.0874C71.498 12.0874 71.7713 12.0355 71.9928 11.9317C72.2143 11.8279 72.37 11.6791 72.46 11.4853H73.9031C73.7647 12.039 73.4532 12.4785 72.9687 12.8038C72.4912 13.1221 71.8994 13.2813 71.1934 13.2813C70.6051 13.2813 70.0895 13.1671 69.6465 12.9387C69.2036 12.7103 68.861 12.3885 68.6187 11.9732C68.3834 11.551 68.2657 11.0631 68.2657 10.5094C68.2657 9.9626 68.3869 9.47812 68.6291 9.05593C68.8714 8.63373 69.2105 8.30843 69.6465 8.08003C70.0895 7.84471 70.5982 7.72705 71.1727 7.72705C71.7402 7.72705 72.2385 7.84471 72.6676 8.08003C73.0968 8.30843 73.429 8.63373 73.6643 9.05593C73.9065 9.4712 74.0277 9.94876 74.0277 10.4886ZM71.1727 8.92096C70.792 8.92096 70.4771 9.01094 70.2279 9.19089C69.9857 9.36392 69.8196 9.62 69.7296 9.95914H72.5846C72.5292 9.63385 72.377 9.38122 72.1278 9.20127C71.8786 9.0144 71.5602 8.92096 71.1727 8.92096Z" fill="white"/>
<path d="M66.8826 11.8798H67.7651V14.5272H66.4154V13.1256H62.5119V14.5272H61.1622V11.8798H61.3076C61.7921 11.8798 62.0551 11.5545 62.0966 10.9039L62.2938 7.88281H66.8826V11.8798ZM63.031 11.8798H65.533V9.12863H63.5604L63.4566 10.8416C63.4289 11.3261 63.287 11.6549 63.031 11.8279V11.8798Z" fill="white"/>
<path d="M60.7666 10.4886C60.7666 10.6547 60.7527 10.807 60.725 10.9454H56.4477C56.5169 11.3192 56.6761 11.6029 56.9253 11.7967C57.1744 11.9905 57.5032 12.0874 57.9116 12.0874C58.2368 12.0874 58.5102 12.0355 58.7317 11.9317C58.9532 11.8279 59.1089 11.6791 59.1989 11.4853H60.642C60.5035 12.039 60.1921 12.4785 59.7076 12.8038C59.23 13.1221 58.6383 13.2813 57.9323 13.2813C57.344 13.2813 56.8284 13.1671 56.3854 12.9387C55.9425 12.7103 55.5999 12.3885 55.3576 11.9732C55.1223 11.551 55.0046 11.0631 55.0046 10.5094C55.0046 9.9626 55.1258 9.47812 55.368 9.05593C55.6102 8.63373 55.9494 8.30843 56.3854 8.08003C56.8284 7.84471 57.3371 7.72705 57.9116 7.72705C58.4791 7.72705 58.9774 7.84471 59.4065 8.08003C59.8356 8.30843 60.1679 8.63373 60.4032 9.05593C60.6454 9.4712 60.7666 9.94876 60.7666 10.4886ZM57.9116 8.92096C57.5309 8.92096 57.216 9.01094 56.9668 9.19089C56.7246 9.36392 56.5585 9.62 56.4685 9.95914H59.3235C59.2681 9.63385 59.1158 9.38122 58.8667 9.20127C58.6175 9.0144 58.2991 8.92096 57.9116 8.92096Z" fill="white"/>
<path d="M53.1335 10.4367C53.4449 10.5198 53.6872 10.6721 53.8602 10.8935C54.0332 11.115 54.1197 11.3849 54.1197 11.7033C54.1197 12.6515 53.4968 13.1256 52.251 13.1256H48.9288V7.88281H52.1887C52.7147 7.88281 53.1196 8.00047 53.4034 8.23579C53.6872 8.47112 53.8291 8.79641 53.8291 9.21169C53.8291 9.75846 53.5972 10.1495 53.1335 10.3848V10.4367ZM50.2785 9.02481V9.95918H51.7527C51.988 9.95918 52.1576 9.92111 52.2614 9.84498C52.3721 9.76192 52.4275 9.63734 52.4275 9.47123C52.4275 9.31204 52.3756 9.19784 52.2718 9.12863C52.168 9.05942 51.9949 9.02481 51.7527 9.02481H50.2785ZM52.0226 11.9836C52.2579 11.9836 52.431 11.9456 52.5417 11.8694C52.6594 11.7864 52.7182 11.6583 52.7182 11.4853C52.7182 11.3192 52.6594 11.1981 52.5417 11.1219C52.431 11.0389 52.2579 10.9974 52.0226 10.9974H50.2785V11.9836H52.0226Z" fill="white"/>
<path d="M44.3188 13.2502C43.5713 13.2502 42.9103 13.0945 42.3359 12.783C41.7614 12.4647 41.315 12.0217 40.9966 11.4542C40.6782 10.8797 40.519 10.2256 40.519 9.49199C40.519 8.75834 40.6782 8.10774 40.9966 7.5402C41.315 6.96574 41.7614 6.52278 42.3359 6.21133C42.9103 5.89295 43.5713 5.73376 44.3188 5.73376C44.9486 5.73376 45.5162 5.84796 46.0214 6.07636C46.5267 6.29784 46.935 6.61276 47.2465 7.02111C47.5579 7.42254 47.7483 7.89319 47.8175 8.43304H46.2394C46.1564 8.01777 45.9418 7.68901 45.5958 7.44677C45.2497 7.20452 44.824 7.0834 44.3188 7.0834C43.8897 7.0834 43.509 7.18376 43.1768 7.38448C42.8446 7.58519 42.585 7.86896 42.3982 8.23579C42.2182 8.59569 42.1282 9.01442 42.1282 9.49199C42.1282 9.96955 42.2182 10.3917 42.3982 10.7586C42.585 11.1185 42.8446 11.3988 43.1768 11.5995C43.509 11.8002 43.8897 11.9006 44.3188 11.9006C44.831 11.9006 45.2532 11.7864 45.5854 11.558C45.9245 11.3296 46.1495 10.9974 46.2602 10.5613H47.8382C47.7483 11.1012 47.5441 11.5753 47.2257 11.9836C46.9143 12.3851 46.5094 12.6965 46.011 12.918C45.5127 13.1395 44.9486 13.2502 44.3188 13.2502Z" fill="white"/>
<path d="M21 9.1C21.2 9 21.3 8.4 21.3 8.1C21 6.5 17.3 7.6 15.4 6.9C15.4 7.4 16 8.1 16.6 8.4C15.6 9.3 14.7 11 14.5 13.1C14.3 11 13.4 9.2 12.4 8.4C13 8.1 13.6 7.4 13.6 6.9C11.7 7.6 7.99999 6.5 7.69999 8.1C7.69999 8.5 7.79999 9 7.99999 9.1C7.99999 9 8.19999 8.7 8.69999 8.6C11.3 8.2 13.5 12.2 11.5 13.9V14H17.4C17.4 14 17.5 14 17.4 13.9C15.4 12.3 17.6 8.2 20.2 8.6C20.8 8.7 21 9 21 9.1ZM9.19999 9.8C9.69999 9.4 10.3 9.4 10.7 9.5C10.5 9.2 9.89999 9 9.69999 8.9C9.49999 9 9.19999 9.4 9.19999 9.8ZM19.2 3.5L18.7 2.9L18.2 3.5L18.7 4.1L19.2 3.5ZM15.2 0.9L14.5 0L13.8 0.9L14.5 1.8L15.2 0.9ZM23.3 21.2L22.7 20.5L22 21.2L22.6 21.8L23.3 21.2ZM10.8 3.5L10.3 2.9L9.79999 3.5L10.3 4.1L10.8 3.5ZM21.9 4.5C21.9 4.3 23.4 4.3 23.4 5.3C23.4 5.9 22.5 6.2 22.5 6.9C22.5 7.2 22.8 7.4 22.9 7.4C22.7 6.3 23.6 6.9 23.9 7.1C23.4 5.7 24.6 5.7 24.4 5C24.3 4.5 23.3 4.7 22.9 4.4C22.2 4 21.5 2.4 21 4C22 4.9 21.4 6.2 20.2 6.2V6.4C21.7 6.4 22.2 5.3 21.9 4.5ZM19.4 8.9C19.2 8.9 18.7 9.2 18.4 9.5C18.8 9.4 19.4 9.4 19.9 9.8C19.9 9.4 19.5 9 19.4 8.9ZM28.7 12.3C28.3 12.5 26.2 13.5 23.5 13.1C23.5 13 23.6 12.8 23.6 12.7C25.4 12.5 26.9 12.2 27.8 11.7C28.9 11.1 29.3 9.7 28.8 8.6H28.7C28.4 8.9 26.5 11 23.6 11.6V11.1C25 10.3 26.4 9.4 27.1 8.5C28.1 7.2 28 5.6 27.1 4.7H27C26.7 5.2 23.9 9.7 20.8 11.7C20.8 11.7 20.7 11.7 20.7 11.8C20.6 11.9 20.6 12 20.7 12C21.1 12.3 21.3 12.8 21.3 13.3C21.3 14.2 20.6 14.9 19.7 15C19.3 15.1 18.6 15.1 18 14.9H17.9V17.6C17.9 17.6 18 17.7 18 17.6C18.4 16.6 19.5 16.4 20 16.4C20.2 17.5 20.5 18.4 20.9 18.8C21.6 19.6 22.7 19.6 23.2 19V18.9C22.9 18.7 21.3 17.8 21 16.1C21.1 16.1 21.2 16 21.4 15.9C21.9 16.8 22.7 17.5 23.3 17.8C24.3 18.3 25.3 18.1 25.7 17.3V17.2C25.1 17.1 23.1 16.6 22.3 15.2L22.6 14.9C23.5 15.6 24.7 16.1 25.6 16.3C26.6 16.4 27.8 16.1 27.8 14.9C27.4 14.9 25 15 23.3 14C23.4 13.9 23.4 13.8 23.5 13.7C23.5 13.7 26.1 14.3 27.3 14.1C28.2 14.3 28.9 13.4 28.7 12.3ZM5.89999 14.1C5.89999 14.2 5.99999 14.4 5.99999 14.5C4.29999 15.5 1.89999 15.4 1.49999 15.4C1.49999 16.6 2.69999 16.9 3.69999 16.8C4.59999 16.7 5.79999 16.1 6.69999 15.4L6.99999 15.7C6.19999 17.1 4.19999 17.6 3.59999 17.7V17.8C3.99999 18.5 4.89999 18.8 5.99999 18.3C6.59999 18 7.39999 17.2 7.89999 16.4C7.99999 16.5 8.09999 16.5 8.29999 16.6C7.79999 18 6.19999 19 5.89999 19.1V19.2C6.39999 19.7 7.49999 19.7 8.19999 19C8.59999 18.5 8.89999 17.6 9.09999 16.6C9.59999 16.6 10.7 16.8 11.1 17.8H11.2V15H11.1C10.5 15.2 9.79999 15.2 9.39999 15.1C8.49999 14.9 7.79999 14.2 7.79999 13.4C7.79999 12.9 7.99999 12.5 8.39999 12.1C8.49999 12 8.49999 11.9 8.39999 11.9C8.39999 11.9 8.29999 11.9 8.29999 11.8C5.19999 9.8 2.39999 5.3 2.09999 4.8H1.99999C1.09999 5.6 0.99999 7.3 1.99999 8.6C2.69999 9.4 3.99999 10.4 5.49999 11.2V11.7C2.59999 11.1 0.69999 9.1 0.39999 8.7H0.29999C-0.20001 9.8 0.19999 11.2 1.29999 11.8C2.19999 12.3 3.69999 12.6 5.49999 12.8C5.49999 12.9 5.49999 13.1 5.59999 13.2C2.89999 13.6 0.79999 12.6 0.39999 12.4H0.29999C0.19999 13.5 0.89999 14.4 2.09999 14.6C3.29999 14.7 5.79999 14.1 5.89999 14.1ZM23.6 21.9L22.7 22.6L21.8 21.9C21.4 22.1 21.1 22.5 21 22.9C20.4 23 18.9 22.6 19 22.4C20.7 20 19.4 18.6 17.8 18.7V20.3C17.8 20.8 17.4 21.2 16.8 21.2H15.7C14.9 21.2 14.4 22 14.4 22C14.4 22 13.9 21.2 13.1 21.2H12C11.4 21.2 11 20.8 11 20.3V18.7C9.59999 18.6 8.29999 20 9.99999 22.4C10.1 22.6 8.59999 23 7.79999 22.9C7.59999 22.7 7.29999 22.6 6.99999 22.6C6.89999 22.6 6.69999 22.6 6.59999 22.7C6.59999 22.7 3.69999 19.9 3.59999 19.9V19.8C3.79999 19.5 3.49999 19.1 3.39999 19.2C3.59999 19 3.59999 18 2.59999 17.8V18.4C2.59999 18.4 1.79999 18 1.39999 18.3C0.99999 18.7 1.49999 19.5 1.49999 19.5H0.89999C1.19999 20.5 2.19999 20.4 2.39999 20.2C2.39999 20.4 2.69999 20.6 3.09999 20.4L3.19999 20.3L6.09999 23C5.99999 23.2 5.89999 23.4 5.99999 23.7C6.09999 24.1 6.39999 24.4 6.79999 24.5C7.09999 24.6 7.39999 24.5 7.59999 24.4L8.39999 25.1C8.49999 25.2 8.59999 25.2 8.69999 25.2C8.89999 25.2 8.99999 25 8.99999 24.9C8.99999 24.8 8.99999 24.8 8.89999 24.7L8.09999 24C8.69999 23.6 9.89999 23.3 10.9 23.3C11.1 23.3 11.1 23.2 11.1 23C10.7 21.9 11.6 21.2 12.6 21.8C13 22.1 13.5 22.6 13.8 23.5C12.2 23.9 10.2 25 9.79999 26.1C9.59999 26.5 10.2 27.2 10.8 27.3H10.9C11.2 25.6 13.1 24.3 14.1 24.1C14.1 24.2 14.1 24.2 14.2 24.3C13.1 24.8 12.1 25.9 11.8 27.1C11.7 27.7 12.3 28.2 12.8 28.3H12.9C13 26.7 13.7 25.4 14.3 24.8V25.2C14.3 25.2 13.7 27 13.7 28.3C13.7 28.9 14.6 29.3 14.7 29.4C14.9 29.3 15.8 28.9 15.8 28.3C15.8 27 15.2 25.2 15.2 25.2V24.8C15.8 25.4 16.5 26.8 16.6 28.3C17.1 28.2 17.8 27.6 17.6 27.1C17.3 25.8 16.3 24.8 15.2 24.3C15.2 24.2 15.2 24.2 15.3 24.1C16.3 24.3 18.1 25.6 18.5 27.3H18.6C19.2 27.2 19.7 26.6 19.6 26.1C19.2 24.9 17.2 23.9 15.6 23.5C15.9 22.6 16.4 22.1 16.8 21.8C17.8 21.2 18.7 21.9 18.3 23C18.2 23.1 18.3 23.3 18.5 23.3C19.6 23.3 20.9 23.7 21.5 24.2C21.8 24.7 22.5 25 23.2 25C24 24.9 24.7 24.3 24.8 23.6C24.5 22.8 24.2 22.2 23.6 21.9ZM5.09999 7.1C5.39999 6.9 6.29999 6.3 6.09999 7.4C6.19999 7.4 6.49999 7.2 6.49999 6.9C6.49999 6.2 5.59999 5.9 5.59999 5.3C5.59999 4.3 7.09999 4.3 7.09999 4.5C6.79999 5.4 7.29999 6.4 8.79999 6.5V6.3C7.49999 6.3 6.99999 5 7.89999 4.1C7.39999 2.5 6.59999 4.1 5.99999 4.5C5.59999 4.7 4.59999 4.6 4.49999 5C4.39999 5.7 5.59999 5.7 5.09999 7.1ZM9.29999 6.5H11.2C12.8 6.5 13.5 5.5 13.7 4.7H15.3C15.5 5.5 16.2 6.5 17.8 6.5H19.7C19.7 6.5 20 6.1 20.1 5.8C20.4 5 20 4.6 19.4 4.6L18.7 5.2L18 4.6C17.4 4.6 17.1 5 17.4 5.8C17.4 5.9 17.5 6 17.6 6.2C16.9 6.1 16.1 5.7 15.9 4.7C15.9 4.7 16.4 3.9 16.5 3.6C17 2.4 16.4 2 15.6 2L14.5 3.3L13.4 2C12.6 2 12 2.5 12.5 3.6C12.6 3.9 13.1 4.7 13.1 4.7C12.9 5.7 12.1 6.1 11.4 6.2C11.5 6.1 11.6 5.9 11.6 5.8C11.9 5 11.5 4.6 11 4.6L10.3 5.2L9.59999 4.6C8.99999 4.6 8.59999 5 8.89999 5.8C8.99999 6 9.29999 6.5 9.29999 6.5ZM14.1 19.4C14.1 19.6 14.3 19.8 14.5 19.8C14.7 19.8 14.9 19.6 14.9 19.4C14.9 19.2 14.7 19 14.5 19C14.3 19 14.1 19.1 14.1 19.4ZM13.2 19.7C13.5 19.3 14 18.5 14 18.5V18L12.5 19.1C12.5 19.6 12.9 19.7 13.2 19.7ZM15.8 16.1L14.9 17.2V17.7C15.2 17.4 16.2 16.7 16.5 16.5C16.2 16.5 15.8 16.1 15.8 16.1ZM14.6 16.3C14.4 16.6 14.2 16.5 14.2 16.5V18.6H14.6V16.3ZM14 17.3C13.1 18 12.1 18.3 12.1 18.3C12.1 18.3 12.1 18.6 12.8 18.6C13.2 18.4 14 17.7 14 17.7V17.3ZM15.7 15.1C15.5 15.5 14.9 16.3 14.9 16.3V16.7C14.9 16.7 15.6 15.9 16 15.5C16 15.5 16.5 15.8 16.3 16.1C16.5 16.3 16.7 16.3 16.8 16.3C17.4 16 16 14.8 15.7 15.1ZM14 16.4C14 16.4 13.8 16.1 13.5 15.9C13.4 16.2 12.8 16.6 12.8 16.6C12.8 16.6 13.4 17 13.8 17.2C13.9 17.2 14.1 17 14.1 17V16.4H14ZM12.5 16.4C12.5 16.4 13 16.1 13.2 15.6C13.2 15.3 12.9 15.2 12.7 15.2V15.4H12L12.2 16H12C12.1 15.9 12 16.3 12.5 16.4ZM14.9 18.5C14.9 18.5 15.1 18.8 15.4 19C15.5 18.7 16.1 18.3 16.1 18.3C16.1 18.3 15.5 17.9 15.1 17.7C15 17.7 14.8 17.9 14.8 17.9V18.5H14.9ZM16.4 18.5C16.4 18.5 15.9 18.8 15.7 19.3C15.7 19.6 16 19.7 16.2 19.7V19.5H16.9L16.6 19H16.8C16.8 18.9 16.9 18.5 16.4 18.5Z" fill="#FEFEFE"/>
</svg>
