<svg width="61" height="61" viewBox="0 0 61 61" fill="none" xmlns="http://www.w3.org/2000/svg">
<path d="M50.6574 12.267C51.5634 11.8368 52.3474 11.9264 53.0094 12.5359C53.6714 13.1096 53.8282 14.1135 53.4798 15.5476L46.7898 48.1923C46.5458 49.3396 46.0929 50.0567 45.4308 50.3436C44.8037 50.6304 44.0022 50.5228 43.0266 50.0209L32.7825 42.2227L27.8695 47.1167C27.5908 47.4036 27.2946 47.6545 26.981 47.8697C26.7023 48.0848 26.319 48.1923 25.8312 48.1923L26.5106 37.4363L45.5354 19.7425C45.9535 19.384 45.9709 19.133 45.5876 18.9896C45.2392 18.8462 44.7862 18.9537 44.2287 19.3123L20.7614 34.5321L10.6218 31.3053C9.50682 30.9468 8.96674 30.4448 9.00158 29.7994C9.07127 29.1182 9.76815 28.5087 11.0922 27.9709L50.6574 12.267Z" fill="white"/>
</svg>
